<svg width="4399" height="225" viewBox="0 0 4399 225" fill="none" xmlns="http://www.w3.org/2000/svg"><path d="m94.358 15 .707-.707-.707.707Zm-12-12 .707-.707-.027-.027-.03-.025-.65.759Zm-76.5 91.5v1h1v-1h-1Zm0 36h1v-1h-1v1Zm76.5 91.5.65.759.03-.025.027-.027-.707-.707Zm12-12 .707.707.027-.027.025-.029-.76-.651Zm0-82.5.76-.651-.026-.029-.027-.027-.707.707Zm-15-15-.707-.707-.707.707.707.707.707-.707Zm15-15 .707.707-.707-.707Zm-52.5-3h-1v1h1v-1Zm0-58.5v-1h-1v1h1Zm0 153h-1v1h1v-1Zm0-58.5v-1h-1v1h1ZM95.065 14.293l-12-12-1.414 1.414 12 12 1.414-1.414ZM83.009 2.24C80.757.31 77.532-1 74.858-1v2c2.125 0 4.901 1.09 6.849 2.76l1.302-1.52ZM74.858-1h-66.6v2h66.6v-2Zm-66.6 0C7.333-1 6.49-.547 5.9.043 5.31.633 4.858 1.475 4.858 2.4h2c0-.275.147-.633.457-.943.31-.31.668-.457.943-.457v-2Zm-3.4 3.4v92.1h2V2.4h-2Zm1 91.1h-2.7v2h2.7v-2Zm-2.7 0c-.925 0-1.767.453-2.357 1.043-.59.59-1.043 1.432-1.043 2.357h2c0-.275.147-.633.457-.943.31-.31.668-.457.943-.457v-2Zm-3.4 3.4v31.2h2V96.9h-2Zm0 31.2c0 .925.452 1.767 1.043 2.357.59.59 1.432 1.043 2.357 1.043v-2c-.275 0-.633-.147-.943-.457-.31-.31-.457-.668-.457-.943h-2Zm3.4 3.4h2.7v-2h-2.7v2Zm1.7-1v92.1h2v-92.1h-2Zm0 92.1c0 .925.452 1.767 1.043 2.357.59.59 1.432 1.043 2.357 1.043v-2c-.275 0-.633-.147-.943-.457-.31-.31-.457-.668-.457-.943h-2Zm3.4 3.4h66.6v-2h-66.6v2Zm66.6 0c2.988 0 5.91-1.321 8.15-3.241l-1.301-1.518c-1.96 1.68-4.437 2.759-6.85 2.759v2Zm8.207-3.293 12-12-1.414-1.414-12 12 1.414 1.414Zm12.052-12.056c1.92-2.24 3.24-5.163 3.24-8.151h-2c0 2.412-1.079 4.889-2.758 6.849l1.518 1.302Zm3.24-8.151V135h-2v67.5h2Zm0-67.5c0-2.988-1.32-5.911-3.24-8.151l-1.518 1.302c1.68 1.96 2.759 4.437 2.759 6.849h2Zm-3.292-8.207-15-15-1.414 1.414 15 15 1.414-1.414Zm-15-13.586 15-15-1.414-1.414-15 15 1.414 1.414Zm15-15c2-2 3.293-5.26 3.293-8.207h-2c0 2.453-1.107 5.193-2.707 6.793l1.414 1.414ZM98.358 90V22.5h-2V90h2Zm0-67.5c0-2.924-.978-5.892-3.293-8.207l-1.414 1.414c1.885 1.885 2.707 4.317 2.707 6.793h2Zm-38 15.9v53.7h2V38.4h-2Zm0 53.7c0 .275-.148.633-.457.943-.31.31-.668.457-.943.457v2c.925 0 1.767-.453 2.357-1.043.59-.59 1.043-1.432 1.043-2.357h-2Zm-1.4 1.4h-17.1v2h17.1v-2Zm-16.1 1V36h-2v58.5h2Zm-1-57.5h17.1v-2h-17.1v2Zm17.1 0c.275 0 .633.147.943.457.31.31.457.668.457.943h2c0-.925-.453-1.767-1.043-2.357-.59-.59-1.432-1.043-2.357-1.043v2Zm1.4 95.9v53.7h2v-53.7h-2Zm0 53.7c0 .275-.148.633-.457.943-.31.31-.668.457-.943.457v2c.925 0 1.767-.453 2.357-1.043.59-.59 1.043-1.432 1.043-2.357h-2Zm-1.4 1.4h-17.1v2h17.1v-2Zm-16.1 1v-58.5h-2V189h2Zm-1-57.5h17.1v-2h-17.1v2Zm17.1 0c.275 0 .633.147.943.457.31.31.457.668.457.943h2c0-.925-.453-1.767-1.043-2.357-.59-.59-1.432-1.043-2.357-1.043v2Zm155.231 91.1-.99.142.007.051.013.05.97-.243Zm-31.5-220.2.99-.142-.007-.05-.013-.05-.97.242Zm-37.8 0-.97-.243-.013.05-.007.051.99.142Zm-31.5 220.2.97.243.013-.05.007-.051-.99-.142Zm34.5 0-.992-.123-.008.061v.062h1Zm6.9-55.8v-1h-.884l-.108.877.992.123Zm18 0 .993-.123-.109-.877h-.884v1Zm6.9 55.8-.992.123.007.06.015.06.97-.243Zm-7.5-91.8v1h1.12l-.126-1.113-.994.113Zm-16.8 0-.994-.113-.126 1.113h1.12v-1Zm8.4-73.8.994-.113h-1.988l.994.113Zm18.3 169h30v-2h-30v2Zm30 0c.921 0 1.777-.449 2.35-1.074.576-.629.972-1.562.72-2.569l-1.94.486c.048.193-.006.46-.255.731-.252.275-.596.426-.875.426v2Zm3.09-3.542-31.5-220.2-1.98.284 31.5 220.2 1.98-.284Zm-31.52-220.3c-.184-.74-.555-1.495-1.095-2.084C182.021-.518 181.246-1 180.289-1v2c.243 0 .518.118.8.426.285.31.515.755.63 1.217l1.94-.486ZM180.289-1h-33v2h33v-2Zm-33 0c-.957 0-1.732.482-2.275 1.074-.54.59-.91 1.345-1.095 2.083l1.94.486c.116-.462.345-.906.63-1.217.282-.308.557-.426.8-.426v-2Zm-3.39 3.258-31.5 220.2 1.98.284 31.5-220.2-1.98-.284Zm-31.48 220.099c-.252 1.007.144 1.94.72 2.569.573.625 1.429 1.074 2.35 1.074v-2c-.279 0-.623-.151-.875-.426-.249-.271-.303-.538-.255-.731l-1.94-.486Zm3.07 3.643h30v-2h-30v2Zm30 0c.925 0 1.767-.453 2.357-1.043.591-.59 1.043-1.432 1.043-2.357h-2c0 .275-.147.633-.457.943-.31.31-.668.457-.943.457v2Zm3.393-3.277 6.9-55.8-1.985-.246-6.9 55.8 1.985.246Zm5.907-54.923h18v-2h-18v2Zm17.008-.877 6.9 55.8 1.985-.246-6.9-55.8-1.985.246Zm6.922 55.92c.185.738.555 1.494 1.095 2.083.543.592 1.318 1.074 2.275 1.074v-2c-.243 0-.518-.118-.8-.426-.285-.311-.514-.755-.63-1.217l-1.94.486Zm-6.53-93.043h-16.8v2h16.8v-2Zm-15.806 1.113 8.4-73.8-1.988-.226-8.4 73.8 1.988.226Zm6.412-73.8 8.4 73.8 1.988-.226-8.4-73.8-1.988.226ZM241.213 36h1v-1h-1v1Zm35.999 0v-1h-1v1h1Zm25.5-37h-87v2h87v-2Zm-87 0c-.925 0-1.766.453-2.357 1.043-.59.59-1.043 1.432-1.043 2.357h2c0-.275.148-.633.458-.943.309-.31.668-.457.942-.457v-2Zm-3.4 3.4v31.2h2V2.4h-2Zm0 31.2c0 .925.453 1.767 1.043 2.357.591.59 1.432 1.043 2.357 1.043v-2c-.274 0-.633-.148-.942-.457-.31-.31-.458-.668-.458-.943h-2Zm3.4 3.4h25.501v-2h-25.501v2Zm24.501-1v186.6h2V36h-2Zm0 186.6c0 .925.452 1.767 1.042 2.357.591.59 1.432 1.043 2.357 1.043v-2c-.274 0-.633-.147-.942-.457-.31-.31-.457-.668-.457-.943h-2Zm3.399 3.4h31.2v-2h-31.2v2Zm31.2 0c.926 0 1.767-.453 2.358-1.043.59-.59 1.042-1.432 1.042-2.357h-2c0 .275-.147.633-.457.943-.309.31-.668.457-.943.457v2Zm3.4-3.4V36h-2v186.6h2Zm-1-185.6h25.5v-2h-25.5v2Zm25.5 0c.926 0 1.767-.453 2.358-1.043.59-.59 1.043-1.432 1.043-2.357h-2c0 .275-.148.633-.458.943-.309.31-.668.457-.943.457v2Zm3.401-3.4V2.4h-2v31.2h2Zm0-31.2c0-.925-.453-1.767-1.043-2.357-.591-.59-1.432-1.043-2.358-1.043v2c.275 0 .634.147.943.457.31.31.458.668.458.943h2ZM348.146 36h1v-1h-1v1Zm36 0v-1h-1v1h1Zm25.5-37h-87v2h87v-2Zm-87 0c-.925 0-1.767.453-2.357 1.043-.59.59-1.043 1.432-1.043 2.357h2c0-.275.148-.633.457-.943.31-.31.668-.457.943-.457v-2Zm-3.4 3.4v31.2h2V2.4h-2Zm0 31.2c0 .925.453 1.767 1.043 2.357.59.59 1.432 1.043 2.357 1.043v-2c-.275 0-.633-.148-.943-.457-.309-.31-.457-.668-.457-.943h-2Zm3.4 3.4h25.5v-2h-25.5v2Zm24.5-1v186.6h2V36h-2Zm0 186.6c0 .925.453 1.767 1.043 2.357.59.59 1.432 1.043 2.357 1.043v-2c-.275 0-.633-.147-.943-.457-.309-.31-.457-.668-.457-.943h-2Zm3.4 3.4h31.2v-2h-31.2v2Zm31.2 0c.925 0 1.767-.453 2.357-1.043.591-.59 1.043-1.432 1.043-2.357h-2c0 .275-.147.633-.457.943-.31.31-.668.457-.943.457v2Zm3.4-3.4V36h-2v186.6h2Zm-1-185.6h25.5v-2h-25.5v2Zm25.5 0c.925 0 1.767-.453 2.357-1.043.591-.59 1.043-1.432 1.043-2.357h-2c0 .275-.147.633-.457.943-.31.31-.668.457-.943.457v2Zm3.4-3.4V2.4h-2v31.2h2Zm0-31.2c0-.925-.452-1.767-1.043-2.357-.59-.59-1.432-1.043-2.357-1.043v2c.275 0 .633.147.943.457.31.31.457.668.457.943h2ZM469.18 189h-1v1h1v-1Zm-2.4-190h-31.2v2h31.2v-2Zm-31.2 0c-.926 0-1.767.453-2.357 1.043-.591.59-1.043 1.432-1.043 2.357h2c0-.275.147-.633.457-.943.309-.31.668-.457.943-.457v-2Zm-3.4 3.4v220.2h2V2.4h-2Zm0 220.2c0 .925.452 1.767 1.043 2.357.59.59 1.431 1.043 2.357 1.043v-2c-.275 0-.634-.147-.943-.457-.31-.31-.457-.668-.457-.943h-2Zm3.4 3.4h67.2v-2h-67.2v2Zm67.2 0c.925 0 1.766-.453 2.357-1.043.59-.59 1.043-1.432 1.043-2.357h-2c0 .275-.148.633-.457.943-.31.31-.669.457-.943.457v2Zm3.4-3.4v-31.2h-2v31.2h2Zm0-31.2c0-.925-.453-1.767-1.043-2.357-.591-.59-1.432-1.043-2.357-1.043v2c.274 0 .633.147.943.457.309.31.457.668.457.943h2Zm-3.4-3.4h-33.6v2h33.6v-2Zm-32.6 1V2.4h-2V189h2Zm0-186.6c0-.925-.453-1.767-1.043-2.357C468.546-.547 467.705-1 466.78-1v2c.274 0 .633.147.943.457.309.31.457.668.457.943h2Zm56.576 92.1v1h1v-1h-1Zm0 36h1v-1h-1v1Zm36 58.5h-1v1h1v-1Zm0-58.5v-1h-1v1h1Zm0-36h-1v1h1v-1Zm0-58.5v-1h-1v1h1Zm33.6-37h-67.2v2h67.2v-2Zm-67.2 0c-.925 0-1.767.453-2.357 1.043-.59.59-1.043 1.432-1.043 2.357h2c0-.275.148-.633.457-.943.31-.31.668-.457.943-.457v-2Zm-3.4 3.4v92.1h2V2.4h-2Zm1 91.1h-2.7v2h2.7v-2Zm-2.7 0c-.925 0-1.767.453-2.357 1.043-.59.59-1.043 1.432-1.043 2.357h2c0-.275.148-.633.457-.943.31-.31.668-.457.943-.457v-2Zm-3.4 3.4v31.2h2V96.9h-2Zm0 31.2c0 .925.453 1.767 1.043 2.357.59.59 1.432 1.043 2.357 1.043v-2c-.275 0-.633-.147-.943-.457-.309-.31-.457-.668-.457-.943h-2Zm3.4 3.4h2.7v-2h-2.7v2Zm1.7-1v92.1h2v-92.1h-2Zm0 92.1c0 .925.453 1.767 1.043 2.357.59.59 1.432 1.043 2.357 1.043v-2c-.275 0-.633-.147-.943-.457-.309-.31-.457-.668-.457-.943h-2Zm3.4 3.4h67.2v-2h-67.2v2Zm67.2 0c.925 0 1.767-.453 2.357-1.043.591-.59 1.043-1.432 1.043-2.357h-2c0 .275-.147.633-.457.943-.309.31-.668.457-.943.457v2Zm3.4-3.4v-31.2h-2v31.2h2Zm0-31.2c0-.925-.452-1.767-1.043-2.357-.59-.59-1.432-1.043-2.357-1.043v2c.275 0 .634.147.943.457.31.31.457.668.457.943h2Zm-3.4-3.4h-33.6v2h33.6v-2Zm-32.6 1v-58.5h-2V189h2Zm-1-57.5h33.6v-2h-33.6v2Zm33.6 0c.925 0 1.767-.453 2.357-1.043.591-.59 1.043-1.432 1.043-2.357h-2c0 .275-.147.633-.457.943-.309.31-.668.457-.943.457v2Zm3.4-3.4V96.9h-2v31.2h2Zm0-31.2c0-.925-.452-1.767-1.043-2.357-.59-.59-1.432-1.043-2.357-1.043v2c.275 0 .634.147.943.457.31.31.457.668.457.943h2Zm-3.4-3.4h-33.6v2h33.6v-2Zm-32.6 1V36h-2v58.5h2Zm-1-57.5h33.6v-2h-33.6v2Zm33.6 0c.925 0 1.767-.453 2.357-1.043.591-.59 1.043-1.432 1.043-2.357h-2c0 .275-.147.633-.457.943-.309.31-.668.457-.943.457v2Zm3.4-3.4V2.4h-2v31.2h2Zm0-31.2c0-.925-.452-1.767-1.043-2.357-.59-.59-1.432-1.043-2.357-1.043v2c.275 0 .634.147.943.457.31.31.457.668.457.943h2ZM709.166 210l.707.707-.707-.707Zm-12 12-.708-.707.708.707Zm-61.5 0-.708.707.708-.707Zm-12-12 .707-.707-.707.707Zm0-195-.708-.707.708.707Zm12-12 .707.707-.707-.707Zm61.5 0-.708.707.708-.707Zm12 12 .707-.707-.707.707Zm-33 115.5h1v-1h-1v1Zm35-33.6v105.6h2V96.9h-2Zm0 105.6c0 2.453-1.107 5.193-2.708 6.793l1.415 1.414c2-2 3.293-5.26 3.293-8.207h-2Zm-2.707 6.793-12.001 12 1.415 1.414 12-12-1.414-1.414Zm-12.001 12c-1.6 1.6-4.34 2.707-6.792 2.707v2c2.947 0 6.207-1.293 8.207-3.293l-1.415-1.414ZM689.666 224h-46.5v2h46.5v-2Zm-46.5 0c-2.453 0-5.193-1.107-6.793-2.707l-1.415 1.414c2 2 5.26 3.293 8.208 3.293v-2Zm-6.793-2.707-12-12-1.415 1.414 12 12 1.415-1.414Zm-12-12c-1.6-1.6-2.707-4.34-2.707-6.793h-2c0 2.947 1.293 6.207 3.292 8.207l1.415-1.414Zm-2.707-6.793v-180h-2v180h2Zm0-180c0-2.453 1.107-5.193 2.707-6.793l-1.415-1.414c-1.999 2-3.292 5.26-3.292 8.207h2Zm2.707-6.793 12-12-1.415-1.414-12 12 1.415 1.414Zm12-12c1.6-1.6 4.34-2.707 6.793-2.707v-2c-2.948 0-6.208 1.293-8.208 3.293l1.415 1.414ZM643.166 1h46.5v-2h-46.5v2Zm46.5 0c2.452 0 5.192 1.107 6.792 2.707l1.415-1.414c-2-2-5.26-3.293-8.207-3.293v2Zm6.792 2.707 12.001 12 1.414-1.414-12-12-1.415 1.414Zm12 12c1.601 1.6 2.708 4.34 2.708 6.793h2c0-2.947-1.293-6.207-3.293-8.207l-1.415 1.414Zm2.708 6.793v50.1h2V22.5h-2Zm0 50.1c0 .275-.148.633-.458.943-.309.31-.668.457-.942.457v2c.925 0 1.766-.453 2.357-1.043.59-.59 1.043-1.432 1.043-2.357h-2Zm-1.4 1.4h-31.2v2h31.2v-2Zm-31.2 0c-.275 0-.634-.147-.943-.457-.31-.31-.457-.668-.457-.943h-2c0 .925.452 1.767 1.042 2.357.591.59 1.432 1.043 2.358 1.043v-2Zm-1.4-1.4V38.4h-2v34.2h2Zm0-34.2c0-.925-.453-1.767-1.043-2.357-.591-.59-1.432-1.043-2.357-1.043v2c.274 0 .633.147.942.457.31.31.458.668.458.943h2Zm-3.4-3.4h-14.7v2h14.7v-2Zm-14.7 0c-.926 0-1.767.453-2.358 1.043-.59.59-1.042 1.432-1.042 2.357h2c0-.275.147-.633.457-.943.309-.31.668-.457.943-.457v-2Zm-3.4 3.4v148.2h2V38.4h-2Zm0 148.2c0 .925.452 1.767 1.042 2.357.591.59 1.432 1.043 2.358 1.043v-2c-.275 0-.634-.147-.943-.457-.31-.31-.457-.668-.457-.943h-2Zm3.4 3.4h14.7v-2h-14.7v2Zm14.7 0c.925 0 1.766-.453 2.357-1.043.59-.59 1.043-1.432 1.043-2.357h-2c0 .275-.148.633-.458.943-.309.31-.668.457-.942.457v2Zm3.4-3.4v-56.1h-2v56.1h2Zm-1-57.1h-7.5v2h7.5v-2Zm-7.5 0c-.275 0-.634-.147-.943-.457-.31-.31-.457-.668-.457-.943h-2c0 .925.452 1.767 1.043 2.357.59.59 1.431 1.043 2.357 1.043v-2Zm-1.4-1.4V96.9h-2v31.2h2Zm0-31.2c0-.275.147-.633.457-.943.309-.31.668-.457.943-.457v-2c-.926 0-1.767.453-2.357 1.043-.591.59-1.043 1.432-1.043 2.357h2Zm1.4-1.4h41.1v-2h-41.1v2Zm41.1 0c.274 0 .633.147.942.457.31.31.458.668.458.943h2c0-.925-.453-1.767-1.043-2.357-.591-.59-1.432-1.043-2.357-1.043v2ZM827.659 15l.707-.707-.707.707Zm-12-12-.708.707.708-.707Zm-76.5 91.5v1h1v-1h-1Zm0 36h1v-1h-1v1Zm36 0v-1h-1v1h1Zm52.5-3 .707-.707-.707.707Zm-15-15-.708-.707-.707.707.707.707.708-.707Zm15-15 .707.707-.707-.707Zm-52.5-3h-1v1h1v-1Zm0-58.5v-1h-1v1h1Zm56.5 54V22.5h-2V90h2Zm0-67.5c0-2.947-1.294-6.207-3.293-8.207l-1.415 1.414c1.601 1.6 2.708 4.34 2.708 6.793h2Zm-3.293-8.207-12-12-1.415 1.414 12 12 1.415-1.414Zm-12-12c-2-2-5.26-3.293-8.207-3.293v2c2.452 0 5.192 1.107 6.792 2.707l1.415-1.414ZM808.159-1h-66.6v2h66.6v-2Zm-66.6 0c-.926 0-1.767.453-2.358 1.043-.59.59-1.042 1.432-1.042 2.357h2c0-.275.147-.633.457-.943.309-.31.668-.457.943-.457v-2Zm-3.4 3.4v92.1h2V2.4h-2Zm1 91.1h-2.7v2h2.7v-2Zm-2.7 0c-.926 0-1.767.453-2.357 1.043-.591.59-1.043 1.432-1.043 2.357h2c0-.275.147-.633.457-.943.309-.31.668-.457.943-.457v-2Zm-3.4 3.4v31.2h2V96.9h-2Zm0 31.2c0 .925.452 1.767 1.043 2.357.59.59 1.431 1.043 2.357 1.043v-2c-.275 0-.634-.147-.943-.457-.31-.31-.457-.668-.457-.943h-2Zm3.4 3.4h2.7v-2h-2.7v2Zm1.7-1v92.1h2v-92.1h-2Zm0 92.1c0 .925.452 1.767 1.042 2.357.591.59 1.432 1.043 2.358 1.043v-2c-.275 0-.634-.147-.943-.457-.31-.31-.457-.668-.457-.943h-2Zm3.4 3.4h31.2v-2h-31.2v2Zm31.2 0c.925 0 1.766-.453 2.357-1.043.59-.59 1.043-1.432 1.043-2.357h-2c0 .275-.148.633-.458.943-.309.31-.668.457-.942.457v2Zm3.4-3.4v-92.1h-2v92.1h2Zm-1-91.1h17.1v-2h-17.1v2Zm17.1 0c.274 0 .633.147.942.457.31.31.458.668.458.943h2c0-.925-.453-1.767-1.043-2.357-.591-.59-1.432-1.043-2.357-1.043v2Zm1.4 1.4v89.7h2v-89.7h-2Zm0 89.7c0 .925.452 1.767 1.042 2.357.591.59 1.432 1.043 2.358 1.043v-2c-.275 0-.634-.147-.943-.457-.31-.31-.457-.668-.457-.943h-2Zm3.4 3.4h31.2v-2h-31.2v2Zm31.2 0c.925 0 1.766-.453 2.357-1.043.59-.59 1.043-1.432 1.043-2.357h-2c0 .275-.148.633-.458.943-.309.31-.668.457-.942.457v2Zm3.4-3.4V135h-2v87.6h2Zm0-87.6c0-2.947-1.294-6.207-3.293-8.207l-1.415 1.414c1.601 1.6 2.708 4.34 2.708 6.793h2Zm-3.293-8.207-15-15-1.415 1.414 15 15 1.415-1.414Zm-15-13.586 15-15-1.415-1.414-15 15 1.415 1.414Zm15-15c1.999-2 3.293-5.26 3.293-8.207h-2c0 2.453-1.107 5.193-2.708 6.793l1.415 1.414ZM792.259 93.5h-17.1v2h17.1v-2Zm-16.1 1V36h-2v58.5h2Zm-1-57.5h17.1v-2h-17.1v2Zm17.1 0c.274 0 .633.147.942.457.31.31.458.668.458.943h2c0-.925-.453-1.767-1.043-2.357-.591-.59-1.432-1.043-2.357-1.043v2Zm1.4 1.4v53.7h2V38.4h-2Zm0 53.7c0 .275-.148.633-.458.943-.309.31-.668.457-.942.457v2c.925 0 1.766-.453 2.357-1.043.59-.59 1.043-1.432 1.043-2.357h-2ZM941.197 15l.707-.707-.707.707Zm-12-12-.707.707.707-.707Zm-61.5 0 .707.707-.707-.707Zm-12 12-.707-.707.707.707Zm0 195 .707-.707-.707.707Zm12 12-.707.707.707-.707Zm61.5 0-.707-.707.707.707Zm12-12 .707.707-.707-.707Zm4-7.5v-180h-2v180h2Zm0-180c0-2.947-1.293-6.207-3.293-8.207l-1.414 1.414c1.6 1.6 2.707 4.34 2.707 6.793h2Zm-3.293-8.207-12-12-1.414 1.414 12 12 1.414-1.414Zm-12-12c-2-2-5.26-3.293-8.207-3.293v2c2.453 0 5.193 1.107 6.793 2.707l1.414-1.414ZM921.697-1h-46.5v2h46.5v-2Zm-46.5 0c-2.947 0-6.207 1.293-8.207 3.293l1.414 1.414c1.6-1.6 4.34-2.707 6.793-2.707v-2Zm-8.207 3.293-12 12 1.414 1.414 12-12-1.414-1.414Zm-12 12c-2 2-3.293 5.26-3.293 8.207h2c0-2.453 1.107-5.193 2.707-6.793l-1.414-1.414Zm-3.293 8.207v180h2v-180h-2Zm0 180c0 2.947 1.293 6.207 3.293 8.207l1.414-1.414c-1.6-1.6-2.707-4.34-2.707-6.793h-2Zm3.293 8.207 12 12 1.414-1.414-12-12-1.414 1.414Zm12 12c2 2 5.26 3.293 8.207 3.293v-2c-2.453 0-5.193-1.107-6.793-2.707l-1.414 1.414Zm8.207 3.293h46.5v-2h-46.5v2Zm46.5 0c2.947 0 6.207-1.293 8.207-3.293l-1.414-1.414c-1.6 1.6-4.34 2.707-6.793 2.707v2Zm8.207-3.293 12-12-1.414-1.414-12 12 1.414 1.414Zm12-12c2-2 3.293-5.26 3.293-8.207h-2c0 2.453-1.107 5.193-2.707 6.793l1.414 1.414ZM907.197 38.4v148.2h2V38.4h-2Zm0 148.2c0 .275-.148.633-.457.943-.31.31-.668.457-.943.457v2c.925 0 1.767-.453 2.357-1.043.59-.59 1.043-1.432 1.043-2.357h-2Zm-1.4 1.4h-14.7v2h14.7v-2Zm-14.7 0c-.275 0-.633-.147-.943-.457-.31-.31-.457-.668-.457-.943h-2c0 .925.452 1.767 1.043 2.357.59.59 1.432 1.043 2.357 1.043v-2Zm-1.4-1.4V38.4h-2v148.2h2Zm0-148.2c0-.275.147-.633.457-.943.31-.31.668-.457.943-.457v-2c-.925 0-1.767.453-2.357 1.043-.591.59-1.043 1.432-1.043 2.357h2Zm1.4-1.4h14.7v-2h-14.7v2Zm14.7 0c.275 0 .633.147.943.457.309.31.457.668.457.943h2c0-.925-.453-1.767-1.043-2.357-.59-.59-1.432-1.043-2.357-1.043v2Zm66.223 173-.708.707.708-.707Zm12 12 .707-.707-.707.707Zm61.5 0 .71.707-.71-.707Zm12-12-.71-.707.71.707Zm.6-211h-31.2v2h31.2v-2Zm-31.2 0c-.93 0-1.77.453-2.36 1.043-.59.59-1.04 1.432-1.04 2.357h2c0-.275.15-.633.46-.943.31-.31.66-.457.94-.457v-2Zm-3.4 3.4v184.2h2V2.4h-2Zm0 184.2c0 .275-.15.633-.46.943-.31.31-.67.457-.94.457v2c.92 0 1.77-.453 2.36-1.043.59-.59 1.04-1.432 1.04-2.357h-2Zm-1.4 1.4h-14.7v2h14.7v-2Zm-14.7 0c-.28 0-.63-.147-.94-.457-.31-.31-.46-.668-.46-.943h-2c0 .925.45 1.767 1.04 2.357.59.59 1.43 1.043 2.36 1.043v-2Zm-1.4-1.4V2.4h-2v184.2h2Zm0-184.2c0-.925-.45-1.767-1.04-2.357-.59-.59-1.44-1.043-2.36-1.043v2c.27 0 .63.147.94.457.31.31.46.668.46.943h2Zm-3.4-3.4h-31.2v2h31.2v-2Zm-31.2 0c-.926 0-1.767.453-2.358 1.043-.59.59-1.042 1.432-1.042 2.357h2c0-.275.147-.633.457-.943.309-.31.668-.457.943-.457v-2Zm-3.4 3.4v200.1h2V2.4h-2Zm0 200.1c0 2.947 1.293 6.207 3.292 8.207l1.415-1.414c-1.601-1.6-2.707-4.34-2.707-6.793h-2Zm3.292 8.207 12 12 1.415-1.414-12-12-1.415 1.414Zm12 12c2 2 5.26 3.293 8.208 3.293v-2c-2.453 0-5.193-1.107-6.793-2.707l-1.415 1.414ZM991.52 226h46.5v-2h-46.5v2Zm46.5 0c2.95 0 6.21-1.293 8.21-3.293l-1.42-1.414c-1.6 1.6-4.34 2.707-6.79 2.707v2Zm8.21-3.293 12-12-1.42-1.414-12 12 1.42 1.414Zm12-12c2-2 3.29-5.26 3.29-8.207h-2c0 2.453-1.11 5.193-2.71 6.793l1.42 1.414Zm3.29-8.207V2.4h-2v200.1h2Zm0-200.1c0-.925-.45-1.767-1.04-2.357-.59-.59-1.44-1.043-2.36-1.043v2c.27 0 .63.147.94.457.31.31.46.668.46.943h2Zm79.89 99.6-.98.192 1.98-.192h-1Zm-19.5-99.6.99-.192-.01-.025-.01-.026-.97.243Zm0 120.6.99-.192-1.99.192h1Zm19.5 99.6-.98.192.01.025v.026l.97-.243ZM1175.01-1h-31.2v2h31.2v-2Zm-31.2 0c-.92 0-1.76.453-2.35 1.043-.59.59-1.05 1.432-1.05 2.357h2c0-.275.15-.633.46-.943.31-.31.67-.457.94-.457v-2Zm-3.4 3.4V102h2V2.4h-2Zm1.99 99.408-19.5-99.6-1.97.384 19.5 99.6 1.97-.384Zm-19.52-99.65a4.812 4.812 0 0 0-1.09-2.084c-.54-.592-1.32-1.074-2.28-1.074v2c.25 0 .52.118.8.426.29.31.52.755.63 1.217l1.94-.486ZM1119.51-1h-31.2v2h31.2v-2Zm-31.2 0c-.92 0-1.76.453-2.35 1.043-.59.59-1.05 1.432-1.05 2.357h2c0-.275.15-.633.46-.943.31-.31.67-.457.94-.457v-2Zm-3.4 3.4v220.2h2V2.4h-2Zm0 220.2c0 .925.46 1.767 1.05 2.357.59.59 1.43 1.043 2.35 1.043v-2c-.27 0-.63-.147-.94-.457-.31-.31-.46-.668-.46-.943h-2Zm3.4 3.4h31.2v-2h-31.2v2Zm31.2 0c.93 0 1.77-.453 2.36-1.043.59-.59 1.04-1.432 1.04-2.357h-2c0 .275-.14.633-.45.943-.31.31-.67.457-.95.457v2Zm3.4-3.4V123h-2v99.6h2Zm-1.98-99.408 19.5 99.6 1.97-.384-19.5-99.6-1.97.384Zm19.51 99.651c.19.738.56 1.494 1.1 2.083.54.592 1.32 1.074 2.27 1.074v-2c-.24 0-.51-.118-.8-.426a2.996 2.996 0 0 1-.63-1.217l-1.94.486Zm3.37 3.157h31.2v-2h-31.2v2Zm31.2 0c.93 0 1.77-.453 2.36-1.043.59-.59 1.04-1.432 1.04-2.357h-2c0 .275-.14.633-.45.943-.31.31-.67.457-.95.457v2Zm3.4-3.4V2.4h-2v220.2h2Zm0-220.2c0-.925-.45-1.767-1.04-2.357-.59-.59-1.43-1.043-2.36-1.043v2c.28 0 .64.147.95.457.31.31.45.668.45.943h2ZM1292.77 15l.71-.707-.71.707Zm-12-12-.7.707.7-.707Zm0 219 .71.707-.71-.707Zm12-12-.7-.707.7.707Zm-52.5-21h-1v1h1v-1Zm0-153v-1h-1v1h1Zm53.21-21.707-12-12-1.41 1.414 12 12 1.41-1.414Zm-12-12c-2-2-5.26-3.293-8.21-3.293v2c2.46 0 5.2 1.107 6.8 2.707l1.41-1.414ZM1273.27-1h-66.6v2h66.6v-2Zm-66.6 0c-.92 0-1.76.453-2.35 1.043-.59.59-1.05 1.432-1.05 2.357h2c0-.275.15-.633.46-.943.31-.31.67-.457.94-.457v-2Zm-3.4 3.4v220.2h2V2.4h-2Zm0 220.2c0 .925.46 1.767 1.05 2.357.59.59 1.43 1.043 2.35 1.043v-2c-.27 0-.63-.147-.94-.457-.31-.31-.46-.668-.46-.943h-2Zm3.4 3.4h66.6v-2h-66.6v2Zm66.6 0c2.95 0 6.21-1.293 8.21-3.293l-1.41-1.414c-1.6 1.6-4.34 2.707-6.8 2.707v2Zm8.21-3.293 12-12-1.41-1.414-12 12 1.41 1.414Zm12-12c2-2 3.29-5.26 3.29-8.207h-2c0 2.453-1.1 5.193-2.7 6.793l1.41 1.414Zm3.29-8.207v-180h-2v180h2Zm0-180c0-2.947-1.29-6.207-3.29-8.207l-1.41 1.414c1.6 1.6 2.7 4.34 2.7 6.793h2Zm-38 15.9v148.2h2V38.4h-2Zm0 148.2c0 .275-.14.633-.45.943-.31.31-.67.457-.95.457v2c.93 0 1.77-.453 2.36-1.043.59-.59 1.04-1.432 1.04-2.357h-2Zm-1.4 1.4h-17.1v2h17.1v-2Zm-16.1 1V36h-2v153h2Zm-1-152h17.1v-2h-17.1v2Zm17.1 0c.28 0 .64.147.95.457.31.31.45.668.45.943h2c0-.925-.45-1.767-1.04-2.357-.59-.59-1.43-1.043-2.36-1.043v2Zm150.18-22 .7-.707-.7.707Zm-12-12-.71.707.71-.707Zm-61.5 0 .7.707-.7-.707Zm-12 12-.71-.707.71.707Zm-.9 71.7.78-.616v-.012l-.01-.012-.77.64Zm52.8 67.5.89-.447-.04-.09-.07-.079-.78.616Zm-51.9 55.8.7-.707-.7.707Zm12 12-.71.707.71-.707Zm61.5 0 .7.707-.7-.707Zm12-12-.71-.707.71.707Zm.9-71.4-.79.616.01.012.01.012.77-.64Zm-52.8-67.5-.9.447.05.09.06.08.79-.617Zm21.3 4.9h31.2v-2h-31.2v2Zm31.2 0c.92 0 1.76-.453 2.35-1.043.59-.59 1.05-1.432 1.05-2.357h-2c0 .275-.15.633-.46.943-.31.31-.67.457-.94.457v2Zm3.4-3.4V22.5h-2v50.1h2Zm0-50.1c0-2.947-1.3-6.207-3.3-8.207l-1.41 1.414c1.6 1.6 2.71 4.34 2.71 6.793h2Zm-3.3-8.207-12-12-1.41 1.414 12 12 1.41-1.414Zm-12-12c-2-2-5.26-3.293-8.2-3.293v2c2.45 0 5.19 1.107 6.79 2.707l1.41-1.414ZM1388.05-1h-46.5v2h46.5v-2Zm-46.5 0c-2.95 0-6.21 1.293-8.21 3.293l1.41 1.414c1.6-1.6 4.34-2.707 6.8-2.707v-2Zm-8.21 3.293-12 12 1.41 1.414 12-12-1.41-1.414Zm-12 12c-2 2-3.29 5.26-3.29 8.207h2c0-2.453 1.1-5.193 2.7-6.793l-1.41-1.414Zm-3.29 8.207v58.2h2V22.5h-2Zm0 58.2c0 2.296.66 4.633 2.33 6.64l1.54-1.28c-1.33-1.594-1.87-3.456-1.87-5.36h-2Zm2.31 6.616 52.8 67.5 1.57-1.232-52.8-67.5-1.57 1.232Zm52.69 67.331c.33.658.5 1.035.5 1.353h2c0-.882-.44-1.705-.71-2.247l-1.79.894Zm.5 1.353v30.6h2V156h-2Zm0 30.6c0 .275-.15.633-.46.943-.31.31-.67.457-.94.457v2c.92 0 1.76-.453 2.35-1.043.59-.59 1.05-1.432 1.05-2.357h-2Zm-1.4 1.4h-14.7v2h14.7v-2Zm-14.7 0c-.28 0-.64-.147-.95-.457-.31-.31-.45-.668-.45-.943h-2c0 .925.45 1.767 1.04 2.357.59.59 1.43 1.043 2.36 1.043v-2Zm-1.4-1.4v-34.2h-2v34.2h2Zm0-34.2c0-.925-.46-1.767-1.05-2.357-.59-.59-1.43-1.043-2.35-1.043v2c.27 0 .63.147.94.457.31.31.46.668.46.943h2Zm-3.4-3.4h-31.2v2h31.2v-2Zm-31.2 0c-.93 0-1.77.453-2.36 1.043-.59.59-1.04 1.432-1.04 2.357h2c0-.275.14-.633.45-.943.31-.31.67-.457.95-.457v-2Zm-3.4 3.4v50.1h2v-50.1h-2Zm0 50.1c0 2.947 1.29 6.207 3.29 8.207l1.41-1.414c-1.6-1.6-2.7-4.34-2.7-6.793h-2Zm3.29 8.207 12 12 1.41-1.414-12-12-1.41 1.414Zm12 12c2 2 5.26 3.293 8.21 3.293v-2c-2.46 0-5.2-1.107-6.8-2.707l-1.41 1.414Zm8.21 3.293h46.5v-2h-46.5v2Zm46.5 0c2.94 0 6.2-1.293 8.2-3.293l-1.41-1.414c-1.6 1.6-4.34 2.707-6.79 2.707v2Zm8.2-3.293 12-12-1.41-1.414-12 12 1.41 1.414Zm12-12c2-2 3.3-5.26 3.3-8.207h-2c0 2.453-1.11 5.193-2.71 6.793l1.41 1.414Zm3.3-8.207v-57.9h-2v57.9h2Zm0-57.9c0-2.296-.66-4.634-2.33-6.64l-1.54 1.28c1.33 1.594 1.87 3.456 1.87 5.36h2Zm-2.32-6.616-52.8-67.5-1.57 1.232 52.8 67.5 1.57-1.232Zm-52.69-67.331c-.09-.179-.18-.332-.25-.456-.07-.132-.12-.215-.16-.294a.63.63 0 0 1-.08-.303h-2c0 .495.13.874.29 1.197.07.145.16.288.22.4.07.12.13.229.19.35l1.79-.894Zm-.49-1.053V38.4h-2v31.2h2Zm0-31.2c0-.275.14-.633.45-.943.31-.31.67-.457.95-.457v-2c-.93 0-1.77.453-2.36 1.043-.59.59-1.04 1.432-1.04 2.357h2Zm1.4-1.4h14.7v-2h-14.7v2Zm14.7 0c.27 0 .63.147.94.457.31.31.46.668.46.943h2c0-.925-.46-1.767-1.05-2.357-.59-.59-1.43-1.043-2.35-1.043v2Zm1.4 1.4v34.2h2V38.4h-2Zm0 34.2c0 .925.45 1.767 1.04 2.357.59.59 1.43 1.043 2.36 1.043v-2c-.28 0-.64-.147-.95-.457-.31-.31-.45-.668-.45-.943h-2ZM1588.21 15l.7-.707-.7.707Zm-12-12 .7-.707-.02-.027-.03-.025-.65.759Zm-76.5 91.5v1h1v-1h-1Zm0 36h1v-1h-1v1Zm76.5 91.5.65.759.03-.025.02-.027-.7-.707Zm12-12 .7.707.03-.027.02-.029-.75-.651Zm0-82.5.75-.651-.02-.029-.03-.027-.7.707Zm-15-15-.71-.707-.71.707.71.707.71-.707Zm15-15 .7.707-.7-.707Zm-52.5-3h-1v1h1v-1Zm0-58.5v-1h-1v1h1Zm0 153h-1v1h1v-1Zm0-58.5v-1h-1v1h1Zm53.2-116.207-12-12-1.41 1.414 12 12 1.41-1.414ZM1576.86 2.24C1574.6.31 1571.38-1 1568.71-1v2c2.12 0 4.9 1.09 6.84 2.76l1.31-1.52ZM1568.71-1h-66.6v2h66.6v-2Zm-66.6 0c-.93 0-1.77.453-2.36 1.043-.59.59-1.04 1.432-1.04 2.357h2c0-.275.14-.633.45-.943.31-.31.67-.457.95-.457v-2Zm-3.4 3.4v92.1h2V2.4h-2Zm1 91.1h-2.7v2h2.7v-2Zm-2.7 0c-.93 0-1.77.453-2.36 1.043-.59.59-1.04 1.432-1.04 2.357h2c0-.275.14-.633.45-.943.31-.31.67-.457.95-.457v-2Zm-3.4 3.4v31.2h2V96.9h-2Zm0 31.2c0 .925.45 1.767 1.04 2.357.59.59 1.43 1.043 2.36 1.043v-2c-.28 0-.64-.147-.95-.457-.31-.31-.45-.668-.45-.943h-2Zm3.4 3.4h2.7v-2h-2.7v2Zm1.7-1v92.1h2v-92.1h-2Zm0 92.1c0 .925.45 1.767 1.04 2.357.59.59 1.43 1.043 2.36 1.043v-2c-.28 0-.64-.147-.95-.457-.31-.31-.45-.668-.45-.943h-2Zm3.4 3.4h66.6v-2h-66.6v2Zm66.6 0c2.98 0 5.91-1.321 8.15-3.241l-1.31-1.518c-1.96 1.68-4.43 2.759-6.84 2.759v2Zm8.2-3.293 12-12-1.41-1.414-12 12 1.41 1.414Zm12.05-12.056c1.92-2.24 3.25-5.163 3.25-8.151h-2c0 2.412-1.08 4.889-2.76 6.849l1.51 1.302Zm3.25-8.151V135h-2v67.5h2Zm0-67.5c0-2.988-1.33-5.911-3.25-8.151l-1.51 1.302c1.68 1.96 2.76 4.437 2.76 6.849h2Zm-3.3-8.207-15-15-1.41 1.414 15 15 1.41-1.414Zm-15-13.586 15-15-1.41-1.414-15 15 1.41 1.414Zm15-15c2-2 3.3-5.26 3.3-8.207h-2c0 2.453-1.11 5.193-2.71 6.793l1.41 1.414Zm3.3-8.207V22.5h-2V90h2Zm0-67.5c0-2.924-.98-5.892-3.3-8.207l-1.41 1.414c1.88 1.885 2.71 4.317 2.71 6.793h2Zm-38 15.9v53.7h2V38.4h-2Zm0 53.7c0 .275-.15.633-.46.943-.31.31-.67.457-.94.457v2c.92 0 1.76-.453 2.35-1.043.59-.59 1.05-1.432 1.05-2.357h-2Zm-1.4 1.4h-17.1v2h17.1v-2Zm-16.1 1V36h-2v58.5h2Zm-1-57.5h17.1v-2h-17.1v2Zm17.1 0c.27 0 .63.147.94.457.31.31.46.668.46.943h2c0-.925-.46-1.767-1.05-2.357-.59-.59-1.43-1.043-2.35-1.043v2Zm1.4 95.9v53.7h2v-53.7h-2Zm0 53.7c0 .275-.15.633-.46.943-.31.31-.67.457-.94.457v2c.92 0 1.76-.453 2.35-1.043.59-.59 1.05-1.432 1.05-2.357h-2Zm-1.4 1.4h-17.1v2h17.1v-2Zm-16.1 1v-58.5h-2V189h2Zm-1-57.5h17.1v-2h-17.1v2Zm17.1 0c.27 0 .63.147.94.457.31.31.46.668.46.943h2c0-.925-.46-1.767-1.05-2.357-.59-.59-1.43-1.043-2.35-1.043v2Zm155.23 91.1-.99.142v.051l.02.05.97-.243Zm-31.5-220.2.99-.142-.01-.05-.01-.05-.97.242Zm-37.8 0-.97-.243-.02.05v.051l.99.142Zm-31.5 220.2.97.243.01-.05.01-.051-.99-.142Zm34.5 0-1-.123v.123h1Zm6.9-55.8v-1h-.89l-.11.877 1 .123Zm18 0 .99-.123-.11-.877h-.88v1Zm6.9 55.8-1 .123.01.06.02.06.97-.243Zm-7.5-91.8v1h1.12l-.13-1.113-.99.113Zm-16.8 0-1-.113-.12 1.113h1.12v-1Zm8.4-73.8.99-.113h-1.99l1 .113Zm18.3 169h30v-2h-30v2Zm30 0c.92 0 1.77-.449 2.35-1.074.57-.629.97-1.562.72-2.569l-1.94.486c.04.193-.01.46-.26.731-.25.275-.59.426-.87.426v2Zm3.09-3.542-31.5-220.2-1.98.284 31.5 220.2 1.98-.284Zm-31.52-220.3c-.19-.74-.56-1.495-1.1-2.084-.54-.592-1.32-1.074-2.27-1.074v2c.24 0 .51.118.8.426a3 3 0 0 1 .63 1.217l1.94-.486ZM1674.14-1h-33v2h33v-2Zm-33 0c-.96 0-1.74.482-2.28 1.074-.54.59-.91 1.345-1.09 2.083l1.94.486c.11-.462.34-.906.63-1.217.28-.308.55-.426.8-.426v-2Zm-3.39 3.258-31.5 220.2 1.98.284 31.5-220.2-1.98-.284Zm-31.48 220.099c-.26 1.007.14 1.94.72 2.569.57.625 1.43 1.074 2.35 1.074v-2c-.28 0-.63-.151-.88-.426-.25-.271-.3-.538-.25-.731l-1.94-.486Zm3.07 3.643h30v-2h-30v2Zm30 0c.92 0 1.76-.453 2.35-1.043.59-.59 1.05-1.432 1.05-2.357h-2c0 .275-.15.633-.46.943-.31.31-.67.457-.94.457v2Zm3.39-3.277 6.9-55.8-1.99-.246-6.9 55.8 1.99.246Zm5.91-54.923h18v-2h-18v2Zm17-.877 6.9 55.8 1.99-.246-6.9-55.8-1.99.246Zm6.93 55.92c.18.738.55 1.494 1.09 2.083.54.592 1.32 1.074 2.28 1.074v-2c-.25 0-.52-.118-.8-.426a2.771 2.771 0 0 1-.63-1.217l-1.94.486Zm-6.53-93.043h-16.8v2h16.8v-2Zm-15.81 1.113 8.4-73.8-1.99-.226-8.4 73.8 1.99.226Zm6.41-73.8 8.4 73.8 1.99-.226-8.4-73.8-1.99.226ZM1735.06 36h1v-1h-1v1Zm36 0v-1h-1v1h1Zm25.5-37h-87v2h87v-2Zm-87 0c-.93 0-1.77.453-2.36 1.043-.59.59-1.04 1.432-1.04 2.357h2c0-.275.15-.633.46-.943.31-.31.67-.457.94-.457v-2Zm-3.4 3.4v31.2h2V2.4h-2Zm0 31.2c0 .925.45 1.767 1.04 2.357.59.59 1.43 1.043 2.36 1.043v-2c-.27 0-.63-.148-.94-.457-.31-.31-.46-.668-.46-.943h-2Zm3.4 3.4h25.5v-2h-25.5v2Zm24.5-1v186.6h2V36h-2Zm0 186.6c0 .925.45 1.767 1.04 2.357.59.59 1.43 1.043 2.36 1.043v-2c-.27 0-.63-.147-.94-.457-.31-.31-.46-.668-.46-.943h-2Zm3.4 3.4h31.2v-2h-31.2v2Zm31.2 0c.93 0 1.77-.453 2.36-1.043.59-.59 1.04-1.432 1.04-2.357h-2c0 .275-.15.633-.46.943-.31.31-.67.457-.94.457v2Zm3.4-3.4V36h-2v186.6h2Zm-1-185.6h25.5v-2h-25.5v2Zm25.5 0c.93 0 1.77-.453 2.36-1.043.59-.59 1.04-1.432 1.04-2.357h-2c0 .275-.15.633-.46.943-.31.31-.67.457-.94.457v2Zm3.4-3.4V2.4h-2v31.2h2Zm0-31.2c0-.925-.45-1.767-1.04-2.357-.59-.59-1.43-1.043-2.36-1.043v2c.27 0 .63.147.94.457.31.31.46.668.46.943h2Zm42.03 33.6h1v-1h-1v1Zm36 0v-1h-1v1h1Zm25.5-37h-87v2h87v-2Zm-87 0c-.92 0-1.76.453-2.35 1.043-.59.59-1.05 1.432-1.05 2.357h2c0-.275.15-.633.46-.943.31-.31.67-.457.94-.457v-2Zm-3.4 3.4v31.2h2V2.4h-2Zm0 31.2c0 .925.46 1.767 1.05 2.357.59.59 1.43 1.043 2.35 1.043v-2c-.27 0-.63-.148-.94-.457-.31-.31-.46-.668-.46-.943h-2Zm3.4 3.4h25.5v-2h-25.5v2Zm24.5-1v186.6h2V36h-2Zm0 186.6c0 .925.46 1.767 1.05 2.357.59.59 1.43 1.043 2.35 1.043v-2c-.27 0-.63-.147-.94-.457-.31-.31-.46-.668-.46-.943h-2Zm3.4 3.4h31.2v-2h-31.2v2Zm31.2 0c.93 0 1.77-.453 2.36-1.043.59-.59 1.04-1.432 1.04-2.357h-2c0 .275-.14.633-.45.943-.31.31-.67.457-.95.457v2Zm3.4-3.4V36h-2v186.6h2Zm-1-185.6h25.5v-2h-25.5v2Zm25.5 0c.93 0 1.77-.453 2.36-1.043.59-.59 1.04-1.432 1.04-2.357h-2c0 .275-.14.633-.45.943-.31.31-.67.457-.95.457v2Zm3.4-3.4V2.4h-2v31.2h2Zm0-31.2c0-.925-.45-1.767-1.04-2.357-.59-.59-1.43-1.043-2.36-1.043v2c.28 0 .64.147.95.457.31.31.45.668.45.943h2Zm56.14 186.6h-1v1h1v-1Zm-2.4-190h-31.2v2h31.2v-2Zm-31.2 0c-.93 0-1.77.453-2.36 1.043-.59.59-1.04 1.432-1.04 2.357h2c0-.275.14-.633.45-.943.31-.31.67-.457.95-.457v-2Zm-3.4 3.4v220.2h2V2.4h-2Zm0 220.2c0 .925.45 1.767 1.04 2.357.59.59 1.43 1.043 2.36 1.043v-2c-.28 0-.64-.147-.95-.457-.31-.31-.45-.668-.45-.943h-2Zm3.4 3.4h67.2v-2h-67.2v2Zm67.2 0c.92 0 1.76-.453 2.35-1.043.59-.59 1.05-1.432 1.05-2.357h-2c0 .275-.15.633-.46.943-.31.31-.67.457-.94.457v2Zm3.4-3.4v-31.2h-2v31.2h2Zm0-31.2c0-.925-.46-1.767-1.05-2.357-.59-.59-1.43-1.043-2.35-1.043v2c.27 0 .63.147.94.457.31.31.46.668.46.943h2Zm-3.4-3.4h-33.6v2h33.6v-2Zm-32.6 1V2.4h-2V189h2Zm0-186.6c0-.925-.46-1.767-1.05-2.357-.59-.59-1.43-1.043-2.35-1.043v2c.27 0 .63.147.94.457.31.31.46.668.46.943h2Zm56.57 92.1v1h1v-1h-1Zm0 36h1v-1h-1v1Zm36 58.5h-1v1h1v-1Zm0-58.5v-1h-1v1h1Zm0-36h-1v1h1v-1Zm0-58.5v-1h-1v1h1Zm33.6-37H2023v2h67.2v-2ZM2023-1c-.92 0-1.76.453-2.35 1.043-.59.59-1.05 1.432-1.05 2.357h2c0-.275.15-.633.46-.943.31-.31.67-.457.94-.457v-2Zm-3.4 3.4v92.1h2V2.4h-2Zm1 91.1h-2.7v2h2.7v-2Zm-2.7 0c-.92 0-1.76.453-2.35 1.043-.59.59-1.05 1.432-1.05 2.357h2c0-.275.15-.633.46-.943.31-.31.67-.457.94-.457v-2Zm-3.4 3.4v31.2h2V96.9h-2Zm0 31.2c0 .925.46 1.767 1.05 2.357.59.59 1.43 1.043 2.35 1.043v-2c-.27 0-.63-.147-.94-.457-.31-.31-.46-.668-.46-.943h-2Zm3.4 3.4h2.7v-2h-2.7v2Zm1.7-1v92.1h2v-92.1h-2Zm0 92.1c0 .925.46 1.767 1.05 2.357.59.59 1.43 1.043 2.35 1.043v-2c-.27 0-.63-.147-.94-.457-.31-.31-.46-.668-.46-.943h-2Zm3.4 3.4h67.2v-2H2023v2Zm67.2 0c.93 0 1.77-.453 2.36-1.043.59-.59 1.04-1.432 1.04-2.357h-2c0 .275-.14.633-.45.943-.31.31-.67.457-.95.457v2Zm3.4-3.4v-31.2h-2v31.2h2Zm0-31.2c0-.925-.45-1.767-1.04-2.357-.59-.59-1.43-1.043-2.36-1.043v2c.28 0 .64.147.95.457.31.31.45.668.45.943h2Zm-3.4-3.4h-33.6v2h33.6v-2Zm-32.6 1v-58.5h-2V189h2Zm-1-57.5h33.6v-2h-33.6v2Zm33.6 0c.93 0 1.77-.453 2.36-1.043.59-.59 1.04-1.432 1.04-2.357h-2c0 .275-.14.633-.45.943-.31.31-.67.457-.95.457v2Zm3.4-3.4V96.9h-2v31.2h2Zm0-31.2c0-.925-.45-1.767-1.04-2.357-.59-.59-1.43-1.043-2.36-1.043v2c.28 0 .64.147.95.457.31.31.45.668.45.943h2Zm-3.4-3.4h-33.6v2h33.6v-2Zm-32.6 1V36h-2v58.5h2Zm-1-57.5h33.6v-2h-33.6v2Zm33.6 0c.93 0 1.77-.453 2.36-1.043.59-.59 1.04-1.432 1.04-2.357h-2c0 .275-.14.633-.45.943-.31.31-.67.457-.95.457v2Zm3.4-3.4V2.4h-2v31.2h2Zm0-31.2c0-.925-.45-1.767-1.04-2.357-.59-.59-1.43-1.043-2.36-1.043v2c.28 0 .64.147.95.457.31.31.45.668.45.943h2ZM2203.01 210l.71.707-.71-.707Zm-12 12-.7-.707.7.707Zm-61.5 0-.7.707.7-.707Zm-12-12 .71-.707-.71.707Zm0-195-.7-.707.7.707Zm12-12 .71.707-.71-.707Zm61.5 0-.7.707.7-.707Zm12 12 .71-.707-.71.707Zm-33 115.5h1v-1h-1v1Zm35-33.6v105.6h2V96.9h-2Zm0 105.6c0 2.453-1.1 5.193-2.7 6.793l1.41 1.414c2-2 3.29-5.26 3.29-8.207h-2Zm-2.7 6.793-12 12 1.41 1.414 12-12-1.41-1.414Zm-12 12c-1.6 1.6-4.34 2.707-6.8 2.707v2c2.95 0 6.21-1.293 8.21-3.293l-1.41-1.414Zm-6.8 2.707h-46.5v2h46.5v-2Zm-46.5 0c-2.45 0-5.19-1.107-6.79-2.707l-1.41 1.414c2 2 5.26 3.293 8.2 3.293v-2Zm-6.79-2.707-12-12-1.41 1.414 12 12 1.41-1.414Zm-12-12c-1.6-1.6-2.71-4.34-2.71-6.793h-2c0 2.947 1.3 6.207 3.3 8.207l1.41-1.414Zm-2.71-6.793v-180h-2v180h2Zm0-180c0-2.453 1.11-5.193 2.71-6.793l-1.41-1.414c-2 2-3.3 5.26-3.3 8.207h2Zm2.71-6.793 12-12-1.41-1.414-12 12 1.41 1.414Zm12-12c1.6-1.6 4.34-2.707 6.79-2.707v-2c-2.94 0-6.2 1.293-8.2 3.293l1.41 1.414ZM2137.01 1h46.5v-2h-46.5v2Zm46.5 0c2.46 0 5.2 1.107 6.8 2.707l1.41-1.414c-2-2-5.26-3.293-8.21-3.293v2Zm6.8 2.707 12 12 1.41-1.414-12-12-1.41 1.414Zm12 12c1.6 1.6 2.7 4.34 2.7 6.793h2c0-2.947-1.29-6.207-3.29-8.207l-1.41 1.414Zm2.7 6.793v50.1h2V22.5h-2Zm0 50.1c0 .275-.14.633-.45.943-.31.31-.67.457-.95.457v2c.93 0 1.77-.453 2.36-1.043.59-.59 1.04-1.432 1.04-2.357h-2Zm-1.4 1.4h-31.2v2h31.2v-2Zm-31.2 0c-.27 0-.63-.147-.94-.457-.31-.31-.46-.668-.46-.943h-2c0 .925.46 1.767 1.05 2.357.59.59 1.43 1.043 2.35 1.043v-2Zm-1.4-1.4V38.4h-2v34.2h2Zm0-34.2c0-.925-.45-1.767-1.04-2.357-.59-.59-1.43-1.043-2.36-1.043v2c.28 0 .64.147.95.457.31.31.45.668.45.943h2Zm-3.4-3.4h-14.7v2h14.7v-2Zm-14.7 0c-.92 0-1.76.453-2.35 1.043-.59.59-1.05 1.432-1.05 2.357h2c0-.275.15-.633.46-.943.31-.31.67-.457.94-.457v-2Zm-3.4 3.4v148.2h2V38.4h-2Zm0 148.2c0 .925.46 1.767 1.05 2.357.59.59 1.43 1.043 2.35 1.043v-2c-.27 0-.63-.147-.94-.457-.31-.31-.46-.668-.46-.943h-2Zm3.4 3.4h14.7v-2h-14.7v2Zm14.7 0c.93 0 1.77-.453 2.36-1.043.59-.59 1.04-1.432 1.04-2.357h-2c0 .275-.14.633-.45.943-.31.31-.67.457-.95.457v2Zm3.4-3.4v-56.1h-2v56.1h2Zm-1-57.1h-7.5v2h7.5v-2Zm-7.5 0c-.27 0-.63-.147-.94-.457-.31-.31-.46-.668-.46-.943h-2c0 .925.46 1.767 1.05 2.357.59.59 1.43 1.043 2.35 1.043v-2Zm-1.4-1.4V96.9h-2v31.2h2Zm0-31.2c0-.275.15-.633.46-.943.31-.31.67-.457.94-.457v-2c-.92 0-1.76.453-2.35 1.043-.59.59-1.05 1.432-1.05 2.357h2Zm1.4-1.4h41.1v-2h-41.1v2Zm41.1 0c.28 0 .64.147.95.457.31.31.45.668.45.943h2c0-.925-.45-1.767-1.04-2.357-.59-.59-1.43-1.043-2.36-1.043v2Zm117.9-80.5.7-.707-.7.707Zm-12-12-.71.707.71-.707Zm-76.5 91.5v1h1v-1h-1Zm0 36h1v-1h-1v1Zm36 0v-1h-1v1h1Zm52.5-3 .7-.707-.7.707Zm-15-15-.71-.707-.71.707.71.707.71-.707Zm15-15 .7.707-.7-.707Zm-52.5-3h-1v1h1v-1Zm0-58.5v-1h-1v1h1Zm56.5 54V22.5h-2V90h2Zm0-67.5c0-2.947-1.3-6.207-3.3-8.207l-1.41 1.414c1.6 1.6 2.71 4.34 2.71 6.793h2Zm-3.3-8.207-12-12-1.41 1.414 12 12 1.41-1.414Zm-12-12c-2-2-5.26-3.293-8.2-3.293v2c2.45 0 5.19 1.107 6.79 2.707l1.41-1.414ZM2302.01-1h-66.6v2h66.6v-2Zm-66.6 0c-.93 0-1.77.453-2.36 1.043-.59.59-1.04 1.432-1.04 2.357h2c0-.275.14-.633.45-.943.31-.31.67-.457.95-.457v-2Zm-3.4 3.4v92.1h2V2.4h-2Zm1 91.1h-2.7v2h2.7v-2Zm-2.7 0c-.93 0-1.77.453-2.36 1.043-.59.59-1.04 1.432-1.04 2.357h2c0-.275.14-.633.45-.943.31-.31.67-.457.95-.457v-2Zm-3.4 3.4v31.2h2V96.9h-2Zm0 31.2c0 .925.45 1.767 1.04 2.357.59.59 1.43 1.043 2.36 1.043v-2c-.28 0-.64-.147-.95-.457-.31-.31-.45-.668-.45-.943h-2Zm3.4 3.4h2.7v-2h-2.7v2Zm1.7-1v92.1h2v-92.1h-2Zm0 92.1c0 .925.45 1.767 1.04 2.357.59.59 1.43 1.043 2.36 1.043v-2c-.28 0-.64-.147-.95-.457-.31-.31-.45-.668-.45-.943h-2Zm3.4 3.4h31.2v-2h-31.2v2Zm31.2 0c.92 0 1.76-.453 2.35-1.043.59-.59 1.05-1.432 1.05-2.357h-2c0 .275-.15.633-.46.943-.31.31-.67.457-.94.457v2Zm3.4-3.4v-92.1h-2v92.1h2Zm-1-91.1h17.1v-2h-17.1v2Zm17.1 0c.27 0 .63.147.94.457.31.31.46.668.46.943h2c0-.925-.46-1.767-1.05-2.357-.59-.59-1.43-1.043-2.35-1.043v2Zm1.4 1.4v89.7h2v-89.7h-2Zm0 89.7c0 .925.45 1.767 1.04 2.357.59.59 1.43 1.043 2.36 1.043v-2c-.28 0-.64-.147-.95-.457-.31-.31-.45-.668-.45-.943h-2Zm3.4 3.4h31.2v-2h-31.2v2Zm31.2 0c.92 0 1.76-.453 2.35-1.043.59-.59 1.05-1.432 1.05-2.357h-2c0 .275-.15.633-.46.943-.31.31-.67.457-.94.457v2Zm3.4-3.4V135h-2v87.6h2Zm0-87.6c0-2.947-1.3-6.207-3.3-8.207l-1.41 1.414c1.6 1.6 2.71 4.34 2.71 6.793h2Zm-3.3-8.207-15-15-1.41 1.414 15 15 1.41-1.414Zm-15-13.586 15-15-1.41-1.414-15 15 1.41 1.414Zm15-15c2-2 3.3-5.26 3.3-8.207h-2c0 2.453-1.11 5.193-2.71 6.793l1.41 1.414Zm-36.1-4.707h-17.1v2h17.1v-2Zm-16.1 1V36h-2v58.5h2Zm-1-57.5h17.1v-2h-17.1v2Zm17.1 0c.27 0 .63.147.94.457.31.31.46.668.46.943h2c0-.925-.46-1.767-1.05-2.357-.59-.59-1.43-1.043-2.35-1.043v2Zm1.4 1.4v53.7h2V38.4h-2Zm0 53.7c0 .275-.15.633-.46.943-.31.31-.67.457-.94.457v2c.92 0 1.76-.453 2.35-1.043.59-.59 1.05-1.432 1.05-2.357h-2ZM2435.04 15l.71-.707-.71.707Zm-12-12-.7.707.7-.707Zm-61.5 0 .71.707-.71-.707Zm-12 12-.7-.707.7.707Zm0 195 .71-.707-.71.707Zm12 12-.7.707.7-.707Zm61.5 0-.7-.707.7.707Zm12-12 .71.707-.71-.707Zm4-7.5v-180h-2v180h2Zm0-180c0-2.947-1.29-6.207-3.29-8.207l-1.41 1.414c1.6 1.6 2.7 4.34 2.7 6.793h2Zm-3.29-8.207-12-12-1.41 1.414 12 12 1.41-1.414Zm-12-12c-2-2-5.26-3.293-8.21-3.293v2c2.46 0 5.2 1.107 6.8 2.707l1.41-1.414ZM2415.54-1h-46.5v2h46.5v-2Zm-46.5 0c-2.94 0-6.2 1.293-8.2 3.293l1.41 1.414c1.6-1.6 4.34-2.707 6.79-2.707v-2Zm-8.2 3.293-12 12 1.41 1.414 12-12-1.41-1.414Zm-12 12c-2 2-3.3 5.26-3.3 8.207h2c0-2.453 1.11-5.193 2.71-6.793l-1.41-1.414Zm-3.3 8.207v180h2v-180h-2Zm0 180c0 2.947 1.3 6.207 3.3 8.207l1.41-1.414c-1.6-1.6-2.71-4.34-2.71-6.793h-2Zm3.3 8.207 12 12 1.41-1.414-12-12-1.41 1.414Zm12 12c2 2 5.26 3.293 8.2 3.293v-2c-2.45 0-5.19-1.107-6.79-2.707l-1.41 1.414Zm8.2 3.293h46.5v-2h-46.5v2Zm46.5 0c2.95 0 6.21-1.293 8.21-3.293l-1.41-1.414c-1.6 1.6-4.34 2.707-6.8 2.707v2Zm8.21-3.293 12-12-1.41-1.414-12 12 1.41 1.414Zm12-12c2-2 3.29-5.26 3.29-8.207h-2c0 2.453-1.1 5.193-2.7 6.793l1.41 1.414ZM2401.04 38.4v148.2h2V38.4h-2Zm0 148.2c0 .275-.14.633-.45.943-.31.31-.67.457-.95.457v2c.93 0 1.77-.453 2.36-1.043.59-.59 1.04-1.432 1.04-2.357h-2Zm-1.4 1.4h-14.7v2h14.7v-2Zm-14.7 0c-.27 0-.63-.147-.94-.457-.31-.31-.46-.668-.46-.943h-2c0 .925.46 1.767 1.05 2.357.59.59 1.43 1.043 2.35 1.043v-2Zm-1.4-1.4V38.4h-2v148.2h2Zm0-148.2c0-.275.15-.633.46-.943.31-.31.67-.457.94-.457v-2c-.92 0-1.76.453-2.35 1.043-.59.59-1.05 1.432-1.05 2.357h2Zm1.4-1.4h14.7v-2h-14.7v2Zm14.7 0c.28 0 .64.147.95.457.31.31.45.668.45.943h2c0-.925-.45-1.767-1.04-2.357-.59-.59-1.43-1.043-2.36-1.043v2Zm66.23 173-.71.707.71-.707Zm12 12 .7-.707-.7.707Zm61.5 0 .7.707-.7-.707Zm12-12-.71-.707.71.707Zm.6-211h-31.2v2h31.2v-2Zm-31.2 0c-.93 0-1.77.453-2.36 1.043-.59.59-1.04 1.432-1.04 2.357h2c0-.275.14-.633.45-.943.31-.31.67-.457.95-.457v-2Zm-3.4 3.4v184.2h2V2.4h-2Zm0 184.2c0 .275-.15.633-.46.943-.31.31-.67.457-.94.457v2c.92 0 1.76-.453 2.35-1.043.59-.59 1.05-1.432 1.05-2.357h-2Zm-1.4 1.4h-14.7v2h14.7v-2Zm-14.7 0c-.28 0-.64-.147-.95-.457-.31-.31-.45-.668-.45-.943h-2c0 .925.45 1.767 1.04 2.357.59.59 1.43 1.043 2.36 1.043v-2Zm-1.4-1.4V2.4h-2v184.2h2Zm0-184.2c0-.925-.46-1.767-1.05-2.357-.59-.59-1.43-1.043-2.35-1.043v2c.27 0 .63.147.94.457.31.31.46.668.46.943h2Zm-3.4-3.4h-31.2v2h31.2v-2Zm-31.2 0c-.93 0-1.77.453-2.36 1.043-.59.59-1.04 1.432-1.04 2.357h2c0-.275.14-.633.45-.943.31-.31.67-.457.95-.457v-2Zm-3.4 3.4v200.1h2V2.4h-2Zm0 200.1c0 2.947 1.29 6.207 3.29 8.207l1.41-1.414c-1.6-1.6-2.7-4.34-2.7-6.793h-2Zm3.29 8.207 12 12 1.41-1.414-12-12-1.41 1.414Zm12 12c2 2 5.26 3.293 8.21 3.293v-2c-2.46 0-5.2-1.107-6.8-2.707l-1.41 1.414Zm8.21 3.293h46.5v-2h-46.5v2Zm46.5 0c2.94 0 6.2-1.293 8.2-3.293l-1.41-1.414c-1.6 1.6-4.34 2.707-6.79 2.707v2Zm8.2-3.293 12-12-1.41-1.414-12 12 1.41 1.414Zm12-12c2-2 3.3-5.26 3.3-8.207h-2c0 2.453-1.11 5.193-2.71 6.793l1.41 1.414Zm3.3-8.207V2.4h-2v200.1h2Zm0-200.1c0-.925-.46-1.767-1.05-2.357-.59-.59-1.43-1.043-2.35-1.043v2c.27 0 .63.147.94.457.31.31.46.668.46.943h2Zm79.89 99.6-.98.192 1.98-.192h-1Zm-19.5-99.6.98-.192v-.025l-.01-.026-.97.243Zm0 120.6.98-.192-1.98.192h1Zm19.5 99.6-.98.192.01.025v.026l.97-.243ZM2668.86-1h-31.2v2h31.2v-2Zm-31.2 0c-.92 0-1.76.453-2.36 1.043-.59.59-1.04 1.432-1.04 2.357h2c0-.275.15-.633.46-.943.31-.31.67-.457.94-.457v-2Zm-3.4 3.4V102h2V2.4h-2Zm1.98 99.408-19.5-99.6-1.96.384 19.5 99.6 1.96-.384Zm-19.51-99.65a4.812 4.812 0 0 0-1.09-2.084c-.55-.592-1.32-1.074-2.28-1.074v2c.24 0 .52.118.8.426.29.31.52.755.63 1.217l1.94-.486ZM2613.36-1h-31.2v2h31.2v-2Zm-31.2 0c-.92 0-1.76.453-2.36 1.043-.59.59-1.04 1.432-1.04 2.357h2c0-.275.15-.633.46-.943.31-.31.67-.457.94-.457v-2Zm-3.4 3.4v220.2h2V2.4h-2Zm0 220.2c0 .925.45 1.767 1.04 2.357.6.59 1.44 1.043 2.36 1.043v-2c-.27 0-.63-.147-.94-.457-.31-.31-.46-.668-.46-.943h-2Zm3.4 3.4h31.2v-2h-31.2v2Zm31.2 0c.93 0 1.77-.453 2.36-1.043.59-.59 1.04-1.432 1.04-2.357h-2c0 .275-.15.633-.46.943-.31.31-.66.457-.94.457v2Zm3.4-3.4V123h-2v99.6h2Zm-1.98-99.408 19.5 99.6 1.96-.384-19.5-99.6-1.96.384Zm19.51 99.651c.19.738.56 1.494 1.1 2.083.54.592 1.31 1.074 2.27 1.074v-2c-.24 0-.52-.118-.8-.426a2.996 2.996 0 0 1-.63-1.217l-1.94.486Zm3.37 3.157h31.2v-2h-31.2v2Zm31.2 0c.93 0 1.77-.453 2.36-1.043.59-.59 1.04-1.432 1.04-2.357h-2c0 .275-.15.633-.46.943-.31.31-.66.457-.94.457v2Zm3.4-3.4V2.4h-2v220.2h2Zm0-220.2c0-.925-.45-1.767-1.04-2.357-.59-.59-1.43-1.043-2.36-1.043v2c.28 0 .63.147.94.457.31.31.46.668.46.943h2ZM2786.62 15l.71-.707-.71.707Zm-12-12-.71.707.71-.707Zm0 219 .71.707-.71-.707Zm12-12-.71-.707.71.707Zm-52.5-21h-1v1h1v-1Zm0-153v-1h-1v1h1Zm53.21-21.707-12-12-1.42 1.414 12 12 1.42-1.414Zm-12-12c-2-2-5.26-3.293-8.21-3.293v2c2.45 0 5.19 1.107 6.79 2.707l1.42-1.414ZM2767.12-1h-66.6v2h66.6v-2Zm-66.6 0c-.92 0-1.77.453-2.36 1.043-.59.59-1.04 1.432-1.04 2.357h2c0-.275.15-.633.46-.943.31-.31.67-.457.94-.457v-2Zm-3.4 3.4v220.2h2V2.4h-2Zm0 220.2c0 .925.45 1.767 1.04 2.357.59.59 1.44 1.043 2.36 1.043v-2c-.27 0-.63-.147-.94-.457-.31-.31-.46-.668-.46-.943h-2Zm3.4 3.4h66.6v-2h-66.6v2Zm66.6 0c2.95 0 6.21-1.293 8.21-3.293l-1.42-1.414c-1.6 1.6-4.34 2.707-6.79 2.707v2Zm8.21-3.293 12-12-1.42-1.414-12 12 1.42 1.414Zm12-12c2-2 3.29-5.26 3.29-8.207h-2c0 2.453-1.11 5.193-2.71 6.793l1.42 1.414Zm3.29-8.207v-180h-2v180h2Zm0-180c0-2.947-1.29-6.207-3.29-8.207l-1.42 1.414c1.6 1.6 2.71 4.34 2.71 6.793h2Zm-38 15.9v148.2h2V38.4h-2Zm0 148.2c0 .275-.15.633-.46.943-.31.31-.66.457-.94.457v2c.93 0 1.77-.453 2.36-1.043.59-.59 1.04-1.432 1.04-2.357h-2Zm-1.4 1.4h-17.1v2h17.1v-2Zm-16.1 1V36h-2v153h2Zm-1-152h17.1v-2h-17.1v2Zm17.1 0c.28 0 .63.147.94.457.31.31.46.668.46.943h2c0-.925-.45-1.767-1.04-2.357-.59-.59-1.43-1.043-2.36-1.043v2Zm150.17-22 .71-.707-.71.707Zm-12-12-.7.707.7-.707Zm-61.5 0 .71.707-.71-.707Zm-12 12-.7-.707.7.707Zm-.9 71.7.79-.616-.01-.012-.01-.012-.77.64Zm52.8 67.5.9-.447-.05-.09-.06-.079-.79.616Zm-51.9 55.8.71-.707-.71.707Zm12 12-.7.707.7-.707Zm61.5 0 .71.707-.71-.707Zm12-12-.7-.707.7.707Zm.9-71.4-.78.616.01.012.01.012.76-.64Zm-52.8-67.5-.89.447.05.09.06.08.78-.617Zm21.3 4.9h31.2v-2h-31.2v2Zm31.2 0c.93 0 1.77-.453 2.36-1.043.59-.59 1.04-1.432 1.04-2.357h-2c0 .275-.14.633-.45.943-.31.31-.67.457-.95.457v2Zm3.4-3.4V22.5h-2v50.1h2Zm0-50.1c0-2.947-1.29-6.207-3.29-8.207l-1.41 1.414c1.6 1.6 2.7 4.34 2.7 6.793h2Zm-3.29-8.207-12-12-1.41 1.414 12 12 1.41-1.414Zm-12-12c-2-2-5.26-3.293-8.21-3.293v2c2.46 0 5.2 1.107 6.8 2.707l1.41-1.414ZM2881.89-1h-46.5v2h46.5v-2Zm-46.5 0c-2.94 0-6.2 1.293-8.2 3.293l1.41 1.414c1.6-1.6 4.34-2.707 6.79-2.707v-2Zm-8.2 3.293-12 12 1.41 1.414 12-12-1.41-1.414Zm-12 12c-2 2-3.3 5.26-3.3 8.207h2c0-2.453 1.11-5.193 2.71-6.793l-1.41-1.414Zm-3.3 8.207v58.2h2V22.5h-2Zm0 58.2c0 2.296.66 4.633 2.34 6.64l1.53-1.28c-1.32-1.594-1.87-3.456-1.87-5.36h-2Zm2.32 6.616 52.8 67.5 1.57-1.232-52.8-67.5-1.57 1.232Zm52.69 67.331c.33.658.49 1.035.49 1.353h2c0-.882-.43-1.705-.7-2.247l-1.79.894Zm.49 1.353v30.6h2V156h-2Zm0 30.6c0 .275-.14.633-.45.943-.31.31-.67.457-.95.457v2c.93 0 1.77-.453 2.36-1.043.59-.59 1.04-1.432 1.04-2.357h-2Zm-1.4 1.4h-14.7v2h14.7v-2Zm-14.7 0c-.27 0-.63-.147-.94-.457-.31-.31-.46-.668-.46-.943h-2c0 .925.46 1.767 1.05 2.357.59.59 1.43 1.043 2.35 1.043v-2Zm-1.4-1.4v-34.2h-2v34.2h2Zm0-34.2c0-.925-.45-1.767-1.04-2.357-.59-.59-1.43-1.043-2.36-1.043v2c.28 0 .64.147.95.457.31.31.45.668.45.943h2Zm-3.4-3.4h-31.2v2h31.2v-2Zm-31.2 0c-.92 0-1.76.453-2.35 1.043-.59.59-1.05 1.432-1.05 2.357h2c0-.275.15-.633.46-.943.31-.31.67-.457.94-.457v-2Zm-3.4 3.4v50.1h2v-50.1h-2Zm0 50.1c0 2.947 1.3 6.207 3.3 8.207l1.41-1.414c-1.6-1.6-2.71-4.34-2.71-6.793h-2Zm3.3 8.207 12 12 1.41-1.414-12-12-1.41 1.414Zm12 12c2 2 5.26 3.293 8.2 3.293v-2c-2.45 0-5.19-1.107-6.79-2.707l-1.41 1.414Zm8.2 3.293h46.5v-2h-46.5v2Zm46.5 0c2.95 0 6.21-1.293 8.21-3.293l-1.41-1.414c-1.6 1.6-4.34 2.707-6.8 2.707v2Zm8.21-3.293 12-12-1.41-1.414-12 12 1.41 1.414Zm12-12c2-2 3.29-5.26 3.29-8.207h-2c0 2.453-1.1 5.193-2.7 6.793l1.41 1.414Zm3.29-8.207v-57.9h-2v57.9h2Zm0-57.9c0-2.296-.66-4.634-2.33-6.64l-1.53 1.28c1.32 1.594 1.86 3.456 1.86 5.36h2Zm-2.31-6.616-52.8-67.5-1.57 1.232 52.8 67.5 1.57-1.232Zm-52.69-67.331c-.09-.179-.18-.332-.25-.456-.08-.132-.12-.215-.16-.294a.553.553 0 0 1-.09-.303h-2c0 .495.14.874.3 1.197.07.145.15.288.22.4.07.12.13.229.19.35l1.79-.894Zm-.5-1.053V38.4h-2v31.2h2Zm0-31.2c0-.275.15-.633.46-.943.31-.31.67-.457.94-.457v-2c-.92 0-1.76.453-2.35 1.043-.59.59-1.05 1.432-1.05 2.357h2Zm1.4-1.4h14.7v-2h-14.7v2Zm14.7 0c.28 0 .64.147.95.457.31.31.45.668.45.943h2c0-.925-.45-1.767-1.04-2.357-.59-.59-1.43-1.043-2.36-1.043v2Zm1.4 1.4v34.2h2V38.4h-2Zm0 34.2c0 .925.46 1.767 1.05 2.357.59.59 1.43 1.043 2.35 1.043v-2c-.27 0-.63-.147-.94-.457-.31-.31-.46-.668-.46-.943h-2ZM3082.05 15l.71-.707-.71.707Zm-12-12 .71-.707-.03-.027-.03-.025-.65.759Zm-76.5 91.5v1h1v-1h-1Zm0 36h1v-1h-1v1Zm76.5 91.5.65.759.03-.025.03-.027-.71-.707Zm12-12 .71.707.03-.027.02-.029-.76-.651Zm0-82.5.76-.651-.02-.029-.03-.027-.71.707Zm-15-15-.7-.707-.71.707.71.707.7-.707Zm15-15 .71.707-.71-.707Zm-52.5-3h-1v1h1v-1Zm0-58.5v-1h-1v1h1Zm0 153h-1v1h1v-1Zm0-58.5v-1h-1v1h1Zm53.21-116.207-12-12-1.41 1.414 12 12 1.41-1.414ZM3070.7 2.24c-2.25-1.93-5.47-3.24-8.15-3.24v2c2.13 0 4.9 1.09 6.85 2.76l1.3-1.52ZM3062.55-1h-66.6v2h66.6v-2Zm-66.6 0c-.92 0-1.76.453-2.35 1.043-.59.59-1.05 1.432-1.05 2.357h2c0-.275.15-.633.46-.943.31-.31.67-.457.94-.457v-2Zm-3.4 3.4v92.1h2V2.4h-2Zm1 91.1h-2.7v2h2.7v-2Zm-2.7 0c-.92 0-1.76.453-2.35 1.043-.59.59-1.05 1.432-1.05 2.357h2c0-.275.15-.633.46-.943.31-.31.67-.457.94-.457v-2Zm-3.4 3.4v31.2h2V96.9h-2Zm0 31.2c0 .925.46 1.767 1.05 2.357.59.59 1.43 1.043 2.35 1.043v-2c-.27 0-.63-.147-.94-.457-.31-.31-.46-.668-.46-.943h-2Zm3.4 3.4h2.7v-2h-2.7v2Zm1.7-1v92.1h2v-92.1h-2Zm0 92.1c0 .925.46 1.767 1.05 2.357.59.59 1.43 1.043 2.35 1.043v-2c-.27 0-.63-.147-.94-.457-.31-.31-.46-.668-.46-.943h-2Zm3.4 3.4h66.6v-2h-66.6v2Zm66.6 0c2.99 0 5.91-1.321 8.15-3.241l-1.3-1.518c-1.96 1.68-4.43 2.759-6.85 2.759v2Zm8.21-3.293 12-12-1.41-1.414-12 12 1.41 1.414Zm12.05-12.056c1.92-2.24 3.24-5.163 3.24-8.151h-2c0 2.412-1.08 4.889-2.76 6.849l1.52 1.302Zm3.24-8.151V135h-2v67.5h2Zm0-67.5c0-2.988-1.32-5.911-3.24-8.151l-1.52 1.302c1.68 1.96 2.76 4.437 2.76 6.849h2Zm-3.29-8.207-15-15-1.41 1.414 15 15 1.41-1.414Zm-15-13.586 15-15-1.41-1.414-15 15 1.41 1.414Zm15-15c2-2 3.29-5.26 3.29-8.207h-2c0 2.453-1.1 5.193-2.7 6.793l1.41 1.414Zm3.29-8.207V22.5h-2V90h2Zm0-67.5c0-2.924-.98-5.892-3.29-8.207l-1.41 1.414c1.88 1.885 2.7 4.317 2.7 6.793h2Zm-38 15.9v53.7h2V38.4h-2Zm0 53.7c0 .275-.14.633-.45.943-.31.31-.67.457-.95.457v2c.93 0 1.77-.453 2.36-1.043.59-.59 1.04-1.432 1.04-2.357h-2Zm-1.4 1.4h-17.1v2h17.1v-2Zm-16.1 1V36h-2v58.5h2Zm-1-57.5h17.1v-2h-17.1v2Zm17.1 0c.28 0 .64.147.95.457.31.31.45.668.45.943h2c0-.925-.45-1.767-1.04-2.357-.59-.59-1.43-1.043-2.36-1.043v2Zm1.4 95.9v53.7h2v-53.7h-2Zm0 53.7c0 .275-.14.633-.45.943-.31.31-.67.457-.95.457v2c.93 0 1.77-.453 2.36-1.043.59-.59 1.04-1.432 1.04-2.357h-2Zm-1.4 1.4h-17.1v2h17.1v-2Zm-16.1 1v-58.5h-2V189h2Zm-1-57.5h17.1v-2h-17.1v2Zm17.1 0c.28 0 .64.147.95.457.31.31.45.668.45.943h2c0-.925-.45-1.767-1.04-2.357-.59-.59-1.43-1.043-2.36-1.043v2Zm155.23 91.1-.99.142.01.051.01.05.97-.243Zm-31.5-220.2.99-.142v-.05l-.02-.05-.97.242Zm-37.8 0-.97-.243-.01.05-.01.051.99.142Zm-31.5 220.2.97.243.02-.05v-.051l-.99-.142Zm34.5 0-.99-.123-.01.061v.062h1Zm6.9-55.8v-1h-.88l-.11.877.99.123Zm18 0 1-.123-.11-.877h-.89v1Zm6.9 55.8-.99.123.01.06.01.06.97-.243Zm-7.5-91.8v1h1.12l-.12-1.113-1 .113Zm-16.8 0-.99-.113-.13 1.113h1.12v-1Zm8.4-73.8 1-.113h-1.99l.99.113Zm18.3 169h30v-2h-30v2Zm30 0c.93 0 1.78-.449 2.35-1.074.58-.629.98-1.562.72-2.569l-1.94.486c.05.193 0 .46-.25.731-.25.275-.6.426-.88.426v2Zm3.09-3.542-31.5-220.2-1.98.284 31.5 220.2 1.98-.284Zm-31.52-220.3a4.812 4.812 0 0 0-1.09-2.084c-.54-.592-1.32-1.074-2.28-1.074v2c.25 0 .52.118.8.426.29.31.52.755.63 1.217l1.94-.486ZM3167.98-1h-33v2h33v-2Zm-33 0c-.95 0-1.73.482-2.27 1.074-.54.59-.91 1.345-1.1 2.083l1.94.486a3 3 0 0 1 .63-1.217c.29-.308.56-.426.8-.426v-2Zm-3.39 3.258-31.5 220.2 1.98.284 31.5-220.2-1.98-.284Zm-31.48 220.099c-.25 1.007.15 1.94.72 2.569.58.625 1.43 1.074 2.35 1.074v-2c-.27 0-.62-.151-.87-.426-.25-.271-.3-.538-.26-.731l-1.94-.486Zm3.07 3.643h30v-2h-30v2Zm30 0c.93 0 1.77-.453 2.36-1.043.59-.59 1.04-1.432 1.04-2.357h-2c0 .275-.14.633-.45.943-.31.31-.67.457-.95.457v2Zm3.4-3.277 6.9-55.8-1.99-.246-6.9 55.8 1.99.246Zm5.9-54.923h18v-2h-18v2Zm17.01-.877 6.9 55.8 1.99-.246-6.9-55.8-1.99.246Zm6.92 55.92c.19.738.56 1.494 1.1 2.083.54.592 1.32 1.074 2.27 1.074v-2c-.24 0-.51-.118-.8-.426a2.996 2.996 0 0 1-.63-1.217l-1.94.486Zm-6.53-93.043h-16.8v2h16.8v-2Zm-15.8 1.113 8.4-73.8-1.99-.226-8.4 73.8 1.99.226Zm6.41-73.8 8.4 73.8 1.99-.226-8.4-73.8-1.99.226ZM3228.91 36h1v-1h-1v1Zm36 0v-1h-1v1h1Zm25.5-37h-87v2h87v-2Zm-87 0c-.93 0-1.77.453-2.36 1.043-.59.59-1.04 1.432-1.04 2.357h2c0-.275.15-.633.45-.943.31-.31.67-.457.95-.457v-2Zm-3.4 3.4v31.2h2V2.4h-2Zm0 31.2c0 .925.45 1.767 1.04 2.357.59.59 1.43 1.043 2.36 1.043v-2c-.28 0-.64-.148-.95-.457-.3-.31-.45-.668-.45-.943h-2Zm3.4 3.4h25.5v-2h-25.5v2Zm24.5-1v186.6h2V36h-2Zm0 186.6c0 .925.45 1.767 1.04 2.357.59.59 1.43 1.043 2.36 1.043v-2c-.28 0-.64-.147-.95-.457-.3-.31-.45-.668-.45-.943h-2Zm3.4 3.4h31.2v-2h-31.2v2Zm31.2 0c.92 0 1.76-.453 2.35-1.043.6-.59 1.05-1.432 1.05-2.357h-2c0 .275-.15.633-.46.943-.31.31-.67.457-.94.457v2Zm3.4-3.4V36h-2v186.6h2Zm-1-185.6h25.5v-2h-25.5v2Zm25.5 0c.92 0 1.76-.453 2.35-1.043.6-.59 1.05-1.432 1.05-2.357h-2c0 .275-.15.633-.46.943-.31.31-.67.457-.94.457v2Zm3.4-3.4V2.4h-2v31.2h2Zm0-31.2c0-.925-.45-1.767-1.05-2.357-.59-.59-1.43-1.043-2.35-1.043v2c.27 0 .63.147.94.457.31.31.46.668.46.943h2Zm42.03 33.6h1v-1h-1v1Zm36 0v-1h-1v1h1Zm25.5-37h-87v2h87v-2Zm-87 0c-.92 0-1.77.453-2.36 1.043-.59.59-1.04 1.432-1.04 2.357h2c0-.275.15-.633.46-.943.31-.31.67-.457.94-.457v-2Zm-3.4 3.4v31.2h2V2.4h-2Zm0 31.2c0 .925.45 1.767 1.04 2.357.59.59 1.44 1.043 2.36 1.043v-2c-.27 0-.63-.148-.94-.457-.31-.31-.46-.668-.46-.943h-2Zm3.4 3.4h25.5v-2h-25.5v2Zm24.5-1v186.6h2V36h-2Zm0 186.6c0 .925.45 1.767 1.04 2.357.59.59 1.44 1.043 2.36 1.043v-2c-.27 0-.63-.147-.94-.457-.31-.31-.46-.668-.46-.943h-2Zm3.4 3.4h31.2v-2h-31.2v2Zm31.2 0c.93 0 1.77-.453 2.36-1.043.59-.59 1.04-1.432 1.04-2.357h-2c0 .275-.15.633-.46.943-.31.31-.66.457-.94.457v2Zm3.4-3.4V36h-2v186.6h2Zm-1-185.6h25.5v-2h-25.5v2Zm25.5 0c.93 0 1.77-.453 2.36-1.043.59-.59 1.04-1.432 1.04-2.357h-2c0 .275-.15.633-.46.943-.31.31-.66.457-.94.457v2Zm3.4-3.4V2.4h-2v31.2h2Zm0-31.2c0-.925-.45-1.767-1.04-2.357-.59-.59-1.43-1.043-2.36-1.043v2c.28 0 .63.147.94.457.31.31.46.668.46.943h2Zm56.14 186.6h-1v1h1v-1Zm-2.4-190h-31.21v2h31.21v-2Zm-31.21 0c-.92 0-1.76.453-2.35 1.043-.59.59-1.04 1.432-1.04 2.357h2c0-.275.14-.633.45-.943.31-.31.67-.457.94-.457v-2Zm-3.39 3.4v220.2h2V2.4h-2Zm0 220.2c0 .925.45 1.767 1.04 2.357.59.59 1.43 1.043 2.35 1.043v-2c-.27 0-.63-.147-.94-.457-.31-.31-.45-.668-.45-.943h-2Zm3.39 3.4h67.21v-2h-67.21v2Zm67.21 0c.92 0 1.76-.453 2.35-1.043.59-.59 1.05-1.432 1.05-2.357h-2c0 .275-.15.633-.46.943-.31.31-.67.457-.94.457v2Zm3.4-3.4v-31.2h-2v31.2h2Zm0-31.2c0-.925-.46-1.767-1.05-2.357-.59-.59-1.43-1.043-2.35-1.043v2c.27 0 .63.147.94.457.31.31.46.668.46.943h2Zm-3.4-3.4h-33.6v2h33.6v-2Zm-32.6 1V2.4h-2V189h2Zm0-186.6c0-.925-.46-1.767-1.05-2.357-.59-.59-1.43-1.043-2.35-1.043v2c.27 0 .63.147.94.457.31.31.46.668.46.943h2Zm56.57 92.1v1h1v-1h-1Zm0 36h1v-1h-1v1Zm36 58.5h-1v1h1v-1Zm0-58.5v-1h-1v1h1Zm0-36h-1v1h1v-1Zm0-58.5v-1h-1v1h1Zm33.6-37h-67.2v2h67.2v-2Zm-67.2 0c-.92 0-1.77.453-2.36 1.043-.59.59-1.04 1.432-1.04 2.357h2c0-.275.15-.633.46-.943.31-.31.67-.457.94-.457v-2Zm-3.4 3.4v92.1h2V2.4h-2Zm1 91.1h-2.7v2h2.7v-2Zm-2.7 0c-.92 0-1.77.453-2.36 1.043-.59.59-1.04 1.432-1.04 2.357h2c0-.275.15-.633.46-.943.31-.31.67-.457.94-.457v-2Zm-3.4 3.4v31.2h2V96.9h-2Zm0 31.2c0 .925.45 1.767 1.04 2.357.59.59 1.44 1.043 2.36 1.043v-2c-.27 0-.63-.147-.94-.457-.31-.31-.46-.668-.46-.943h-2Zm3.4 3.4h2.7v-2h-2.7v2Zm1.7-1v92.1h2v-92.1h-2Zm0 92.1c0 .925.45 1.767 1.04 2.357.59.59 1.44 1.043 2.36 1.043v-2c-.27 0-.63-.147-.94-.457-.31-.31-.46-.668-.46-.943h-2Zm3.4 3.4h67.2v-2h-67.2v2Zm67.2 0c.93 0 1.77-.453 2.36-1.043.59-.59 1.04-1.432 1.04-2.357h-2c0 .275-.15.633-.46.943-.31.31-.66.457-.94.457v2Zm3.4-3.4v-31.2h-2v31.2h2Zm0-31.2c0-.925-.45-1.767-1.04-2.357-.59-.59-1.43-1.043-2.36-1.043v2c.28 0 .63.147.94.457.31.31.46.668.46.943h2Zm-3.4-3.4h-33.6v2h33.6v-2Zm-32.6 1v-58.5h-2V189h2Zm-1-57.5h33.6v-2h-33.6v2Zm33.6 0c.93 0 1.77-.453 2.36-1.043.59-.59 1.04-1.432 1.04-2.357h-2c0 .275-.15.633-.46.943-.31.31-.66.457-.94.457v2Zm3.4-3.4V96.9h-2v31.2h2Zm0-31.2c0-.925-.45-1.767-1.04-2.357-.59-.59-1.43-1.043-2.36-1.043v2c.28 0 .63.147.94.457.31.31.46.668.46.943h2Zm-3.4-3.4h-33.6v2h33.6v-2Zm-32.6 1V36h-2v58.5h2Zm-1-57.5h33.6v-2h-33.6v2Zm33.6 0c.93 0 1.77-.453 2.36-1.043.59-.59 1.04-1.432 1.04-2.357h-2c0 .275-.15.633-.46.943-.31.31-.66.457-.94.457v2Zm3.4-3.4V2.4h-2v31.2h2Zm0-31.2c0-.925-.45-1.767-1.04-2.357-.59-.59-1.43-1.043-2.36-1.043v2c.28 0 .63.147.94.457.31.31.46.668.46.943h2ZM3696.86 210l.71.707-.71-.707Zm-12 12-.71-.707.71.707Zm-61.5 0-.71.707.71-.707Zm-12-12 .71-.707-.71.707Zm0-195-.71-.707.71.707Zm12-12 .71.707-.71-.707Zm61.5 0-.71.707.71-.707Zm12 12 .71-.707-.71.707Zm-33 115.5h1v-1h-1v1Zm35-33.6v105.6h2V96.9h-2Zm0 105.6c0 2.453-1.11 5.193-2.71 6.793l1.42 1.414c2-2 3.29-5.26 3.29-8.207h-2Zm-2.71 6.793-12 12 1.42 1.414 12-12-1.42-1.414Zm-12 12c-1.6 1.6-4.34 2.707-6.79 2.707v2c2.95 0 6.21-1.293 8.21-3.293l-1.42-1.414Zm-6.79 2.707h-46.5v2h46.5v-2Zm-46.5 0c-2.45 0-5.19-1.107-6.79-2.707l-1.42 1.414c2 2 5.26 3.293 8.21 3.293v-2Zm-6.79-2.707-12-12-1.42 1.414 12 12 1.42-1.414Zm-12-12c-1.6-1.6-2.71-4.34-2.71-6.793h-2c0 2.947 1.29 6.207 3.29 8.207l1.42-1.414Zm-2.71-6.793v-180h-2v180h2Zm0-180c0-2.453 1.11-5.193 2.71-6.793l-1.42-1.414c-2 2-3.29 5.26-3.29 8.207h2Zm2.71-6.793 12-12-1.42-1.414-12 12 1.42 1.414Zm12-12c1.6-1.6 4.34-2.707 6.79-2.707v-2c-2.95 0-6.21 1.293-8.21 3.293l1.42 1.414ZM3630.86 1h46.5v-2h-46.5v2Zm46.5 0c2.45 0 5.19 1.107 6.79 2.707l1.42-1.414c-2-2-5.26-3.293-8.21-3.293v2Zm6.79 2.707 12 12 1.42-1.414-12-12-1.42 1.414Zm12 12c1.6 1.6 2.71 4.34 2.71 6.793h2c0-2.947-1.29-6.207-3.29-8.207l-1.42 1.414Zm2.71 6.793v50.1h2V22.5h-2Zm0 50.1c0 .275-.15.633-.46.943-.31.31-.66.457-.94.457v2c.93 0 1.77-.453 2.36-1.043.59-.59 1.04-1.432 1.04-2.357h-2Zm-1.4 1.4h-31.2v2h31.2v-2Zm-31.2 0c-.27 0-.63-.147-.94-.457-.31-.31-.46-.668-.46-.943h-2c0 .925.45 1.767 1.04 2.357.59.59 1.44 1.043 2.36 1.043v-2Zm-1.4-1.4V38.4h-2v34.2h2Zm0-34.2c0-.925-.45-1.767-1.04-2.357-.59-.59-1.43-1.043-2.36-1.043v2c.28 0 .63.147.94.457.31.31.46.668.46.943h2Zm-3.4-3.4h-14.7v2h14.7v-2Zm-14.7 0c-.92 0-1.77.453-2.36 1.043-.59.59-1.04 1.432-1.04 2.357h2c0-.275.15-.633.46-.943.31-.31.67-.457.94-.457v-2Zm-3.4 3.4v148.2h2V38.4h-2Zm0 148.2c0 .925.45 1.767 1.04 2.357.59.59 1.44 1.043 2.36 1.043v-2c-.27 0-.63-.147-.94-.457-.31-.31-.46-.668-.46-.943h-2Zm3.4 3.4h14.7v-2h-14.7v2Zm14.7 0c.93 0 1.77-.453 2.36-1.043.59-.59 1.04-1.432 1.04-2.357h-2c0 .275-.15.633-.46.943-.31.31-.66.457-.94.457v2Zm3.4-3.4v-56.1h-2v56.1h2Zm-1-57.1h-7.5v2h7.5v-2Zm-7.5 0c-.27 0-.63-.147-.94-.457-.31-.31-.46-.668-.46-.943h-2c0 .925.45 1.767 1.04 2.357.59.59 1.44 1.043 2.36 1.043v-2Zm-1.4-1.4V96.9h-2v31.2h2Zm0-31.2c0-.275.15-.633.46-.943.31-.31.67-.457.94-.457v-2c-.92 0-1.77.453-2.36 1.043-.59.59-1.04 1.432-1.04 2.357h2Zm1.4-1.4h41.1v-2h-41.1v2Zm41.1 0c.28 0 .63.147.94.457.31.31.46.668.46.943h2c0-.925-.45-1.767-1.04-2.357-.59-.59-1.43-1.043-2.36-1.043v2ZM3815.35 15l.71-.707-.71.707Zm-12-12-.7.707.7-.707Zm-76.5 91.5v1h1v-1h-1Zm0 36h1v-1h-1v1Zm36 0v-1h-1v1h1Zm52.5-3 .71-.707-.71.707Zm-15-15-.7-.707-.71.707.71.707.7-.707Zm15-15 .71.707-.71-.707Zm-52.5-3h-1v1h1v-1Zm0-58.5v-1h-1v1h1Zm56.5 54V22.5h-2V90h2Zm0-67.5c0-2.947-1.29-6.207-3.29-8.207l-1.41 1.414c1.6 1.6 2.7 4.34 2.7 6.793h2Zm-3.29-8.207-12-12-1.41 1.414 12 12 1.41-1.414Zm-12-12c-2-2-5.26-3.293-8.21-3.293v2c2.46 0 5.2 1.107 6.8 2.707l1.41-1.414ZM3795.85-1h-66.6v2h66.6v-2Zm-66.6 0c-.92 0-1.76.453-2.35 1.043-.59.59-1.05 1.432-1.05 2.357h2c0-.275.15-.633.46-.943.31-.31.67-.457.94-.457v-2Zm-3.4 3.4v92.1h2V2.4h-2Zm1 91.1h-2.7v2h2.7v-2Zm-2.7 0c-.92 0-1.76.453-2.35 1.043-.59.59-1.05 1.432-1.05 2.357h2c0-.275.15-.633.46-.943.31-.31.67-.457.94-.457v-2Zm-3.4 3.4v31.2h2V96.9h-2Zm0 31.2c0 .925.46 1.767 1.05 2.357.59.59 1.43 1.043 2.35 1.043v-2c-.27 0-.63-.147-.94-.457-.31-.31-.46-.668-.46-.943h-2Zm3.4 3.4h2.7v-2h-2.7v2Zm1.7-1v92.1h2v-92.1h-2Zm0 92.1c0 .925.46 1.767 1.05 2.357.59.59 1.43 1.043 2.35 1.043v-2c-.27 0-.63-.147-.94-.457-.31-.31-.46-.668-.46-.943h-2Zm3.4 3.4h31.2v-2h-31.2v2Zm31.2 0c.93 0 1.77-.453 2.36-1.043.59-.59 1.04-1.432 1.04-2.357h-2c0 .275-.14.633-.45.943-.31.31-.67.457-.95.457v2Zm3.4-3.4v-92.1h-2v92.1h2Zm-1-91.1h17.1v-2h-17.1v2Zm17.1 0c.28 0 .64.147.95.457.31.31.45.668.45.943h2c0-.925-.45-1.767-1.04-2.357-.59-.59-1.43-1.043-2.36-1.043v2Zm1.4 1.4v89.7h2v-89.7h-2Zm0 89.7c0 .925.46 1.767 1.05 2.357.59.59 1.43 1.043 2.35 1.043v-2c-.27 0-.63-.147-.94-.457-.31-.31-.46-.668-.46-.943h-2Zm3.4 3.4h31.2v-2h-31.2v2Zm31.2 0c.93 0 1.77-.453 2.36-1.043.59-.59 1.04-1.432 1.04-2.357h-2c0 .275-.14.633-.45.943-.31.31-.67.457-.95.457v2Zm3.4-3.4V135h-2v87.6h2Zm0-87.6c0-2.947-1.29-6.207-3.29-8.207l-1.41 1.414c1.6 1.6 2.7 4.34 2.7 6.793h2Zm-3.29-8.207-15-15-1.41 1.414 15 15 1.41-1.414Zm-15-13.586 15-15-1.41-1.414-15 15 1.41 1.414Zm15-15c2-2 3.29-5.26 3.29-8.207h-2c0 2.453-1.1 5.193-2.7 6.793l1.41 1.414Zm-36.11-4.707h-17.1v2h17.1v-2Zm-16.1 1V36h-2v58.5h2Zm-1-57.5h17.1v-2h-17.1v2Zm17.1 0c.28 0 .64.147.95.457.31.31.45.668.45.943h2c0-.925-.45-1.767-1.04-2.357-.59-.59-1.43-1.043-2.36-1.043v2Zm1.4 1.4v53.7h2V38.4h-2Zm0 53.7c0 .275-.14.633-.45.943-.31.31-.67.457-.95.457v2c.93 0 1.77-.453 2.36-1.043.59-.59 1.04-1.432 1.04-2.357h-2ZM3928.89 15l.71-.707-.71.707Zm-12-12-.7.707.7-.707Zm-61.5 0 .71.707-.71-.707Zm-12 12-.7-.707.7.707Zm0 195 .71-.707-.71.707Zm12 12-.7.707.7-.707Zm61.5 0-.7-.707.7.707Zm12-12 .71.707-.71-.707Zm4-7.5v-180h-2v180h2Zm0-180c0-2.947-1.29-6.207-3.29-8.207l-1.41 1.414c1.6 1.6 2.7 4.34 2.7 6.793h2Zm-3.29-8.207-12-12-1.41 1.414 12 12 1.41-1.414Zm-12-12c-2-2-5.26-3.293-8.21-3.293v2c2.45 0 5.19 1.107 6.8 2.707l1.41-1.414ZM3909.39-1h-46.5v2h46.5v-2Zm-46.5 0c-2.95 0-6.21 1.293-8.2 3.293l1.41 1.414c1.6-1.6 4.34-2.707 6.79-2.707v-2Zm-8.2 3.293-12 12 1.41 1.414 12-12-1.41-1.414Zm-12 12c-2 2-3.3 5.26-3.3 8.207h2c0-2.453 1.11-5.193 2.71-6.793l-1.41-1.414Zm-3.3 8.207v180h2v-180h-2Zm0 180c0 2.947 1.3 6.207 3.3 8.207l1.41-1.414c-1.6-1.6-2.71-4.34-2.71-6.793h-2Zm3.3 8.207 12 12 1.41-1.414-12-12-1.41 1.414Zm12 12c1.99 2 5.25 3.293 8.2 3.293v-2c-2.45 0-5.19-1.107-6.79-2.707l-1.41 1.414Zm8.2 3.293h46.5v-2h-46.5v2Zm46.5 0c2.95 0 6.21-1.293 8.21-3.293l-1.41-1.414c-1.61 1.6-4.35 2.707-6.8 2.707v2Zm8.21-3.293 12-12-1.41-1.414-12 12 1.41 1.414Zm12-12c2-2 3.29-5.26 3.29-8.207h-2c0 2.453-1.1 5.193-2.7 6.793l1.41 1.414ZM3894.89 38.4v148.2h2V38.4h-2Zm0 148.2c0 .275-.15.633-.45.943-.31.31-.67.457-.95.457v2c.93 0 1.77-.453 2.36-1.043.59-.59 1.04-1.432 1.04-2.357h-2Zm-1.4 1.4h-14.7v2h14.7v-2Zm-14.7 0c-.27 0-.63-.147-.94-.457-.31-.31-.46-.668-.46-.943h-2c0 .925.45 1.767 1.05 2.357.59.59 1.43 1.043 2.35 1.043v-2Zm-1.4-1.4V38.4h-2v148.2h2Zm0-148.2c0-.275.15-.633.46-.943.31-.31.67-.457.94-.457v-2c-.92 0-1.76.453-2.35 1.043-.6.59-1.05 1.432-1.05 2.357h2Zm1.4-1.4h14.7v-2h-14.7v2Zm14.7 0c.28 0 .64.147.95.457.3.31.45.668.45.943h2c0-.925-.45-1.767-1.04-2.357-.59-.59-1.43-1.043-2.36-1.043v2Zm66.22 173-.7.707.7-.707Zm12 12 .71-.707-.71.707Zm61.5 0 .71.707-.71-.707Zm12-12-.7-.707.7.707Zm.6-211h-31.2v2h31.2v-2Zm-31.2 0c-.92 0-1.76.453-2.35 1.043-.59.59-1.05 1.432-1.05 2.357h2c0-.275.15-.633.46-.943.31-.31.67-.457.94-.457v-2Zm-3.4 3.4v184.2h2V2.4h-2Zm0 184.2c0 .275-.14.633-.45.943-.31.31-.67.457-.95.457v2c.93 0 1.77-.453 2.36-1.043.59-.59 1.04-1.432 1.04-2.357h-2Zm-1.4 1.4h-14.7v2h14.7v-2Zm-14.7 0c-.27 0-.63-.147-.94-.457-.31-.31-.46-.668-.46-.943h-2c0 .925.46 1.767 1.05 2.357.59.59 1.43 1.043 2.35 1.043v-2Zm-1.4-1.4V2.4h-2v184.2h2Zm0-184.2c0-.925-.45-1.767-1.04-2.357-.59-.59-1.43-1.043-2.36-1.043v2c.28 0 .64.147.95.457.31.31.45.668.45.943h2Zm-3.4-3.4h-31.2v2h31.2v-2Zm-31.2 0c-.92 0-1.76.453-2.35 1.043-.59.59-1.05 1.432-1.05 2.357h2c0-.275.15-.633.46-.943.31-.31.67-.457.94-.457v-2Zm-3.4 3.4v200.1h2V2.4h-2Zm0 200.1c0 2.947 1.3 6.207 3.3 8.207l1.41-1.414c-1.6-1.6-2.71-4.34-2.71-6.793h-2Zm3.3 8.207 12 12 1.41-1.414-12-12-1.41 1.414Zm12 12c2 2 5.26 3.293 8.2 3.293v-2c-2.45 0-5.19-1.107-6.79-2.707l-1.41 1.414Zm8.2 3.293h46.5v-2h-46.5v2Zm46.5 0c2.95 0 6.21-1.293 8.21-3.293l-1.41-1.414c-1.6 1.6-4.34 2.707-6.8 2.707v2Zm8.21-3.293 12-12-1.41-1.414-12 12 1.41 1.414Zm12-12c2-2 3.29-5.26 3.29-8.207h-2c0 2.453-1.1 5.193-2.7 6.793l1.41 1.414Zm3.29-8.207V2.4h-2v200.1h2Zm0-200.1c0-.925-.45-1.767-1.04-2.357-.59-.59-1.43-1.043-2.36-1.043v2c.28 0 .64.147.95.457.31.31.45.668.45.943h2Zm79.9 99.6-.98.192 1.98-.192h-1Zm-19.5-99.6.98-.192v-.025l-.01-.026-.97.243Zm0 120.6.98-.192-1.98.192h1Zm19.5 99.6-.98.192v.025l.01.026.97-.243ZM4162.71-1h-31.2v2h31.2v-2Zm-31.2 0c-.93 0-1.77.453-2.36 1.043-.59.59-1.04 1.432-1.04 2.357h2c0-.275.15-.633.46-.943.31-.31.66-.457.94-.457v-2Zm-3.4 3.4V102h2V2.4h-2Zm1.98 99.408-19.5-99.6-1.96.384 19.5 99.6 1.96-.384Zm-19.51-99.65a4.837 4.837 0 0 0-1.1-2.084c-.54-.592-1.31-1.074-2.27-1.074v2c.24 0 .52.118.8.426a3 3 0 0 1 .63 1.217l1.94-.486ZM4107.21-1h-31.2v2h31.2v-2Zm-31.2 0c-.93 0-1.77.453-2.36 1.043-.59.59-1.04 1.432-1.04 2.357h2c0-.275.15-.633.46-.943.31-.31.66-.457.94-.457v-2Zm-3.4 3.4v220.2h2V2.4h-2Zm0 220.2c0 .925.45 1.767 1.04 2.357.59.59 1.43 1.043 2.36 1.043v-2c-.28 0-.63-.147-.94-.457-.31-.31-.46-.668-.46-.943h-2Zm3.4 3.4h31.2v-2h-31.2v2Zm31.2 0c.92 0 1.77-.453 2.36-1.043.59-.59 1.04-1.432 1.04-2.357h-2c0 .275-.15.633-.46.943-.31.31-.67.457-.94.457v2Zm3.4-3.4V123h-2v99.6h2Zm-1.98-99.408 19.5 99.6 1.96-.384-19.5-99.6-1.96.384Zm19.51 99.651c.18.738.55 1.494 1.09 2.083.55.592 1.32 1.074 2.28 1.074v-2c-.24 0-.52-.118-.8-.426a2.771 2.771 0 0 1-.63-1.217l-1.94.486Zm3.37 3.157h31.2v-2h-31.2v2Zm31.2 0c.92 0 1.77-.453 2.36-1.043.59-.59 1.04-1.432 1.04-2.357h-2c0 .275-.15.633-.46.943-.31.31-.67.457-.94.457v2Zm3.4-3.4V2.4h-2v220.2h2Zm0-220.2c0-.925-.45-1.767-1.04-2.357-.59-.59-1.44-1.043-2.36-1.043v2c.27 0 .63.147.94.457.31.31.46.668.46.943h2ZM4280.47 15l.71-.707-.71.707Zm-12-12-.71.707.71-.707Zm0 219 .71.707-.71-.707Zm12-12-.71-.707.71.707Zm-52.5-21h-1v1h1v-1Zm0-153v-1h-1v1h1Zm53.21-21.707-12-12-1.42 1.414 12 12 1.42-1.414Zm-12-12c-2-2-5.26-3.293-8.21-3.293v2c2.45 0 5.19 1.107 6.79 2.707l1.42-1.414ZM4260.97-1h-66.6v2h66.6v-2Zm-66.6 0c-.93 0-1.77.453-2.36 1.043-.59.59-1.04 1.432-1.04 2.357h2c0-.275.15-.633.46-.943.31-.31.66-.457.94-.457v-2Zm-3.4 3.4v220.2h2V2.4h-2Zm0 220.2c0 .925.45 1.767 1.04 2.357.59.59 1.43 1.043 2.36 1.043v-2c-.28 0-.63-.147-.94-.457-.31-.31-.46-.668-.46-.943h-2Zm3.4 3.4h66.6v-2h-66.6v2Zm66.6 0c2.95 0 6.21-1.293 8.21-3.293l-1.42-1.414c-1.6 1.6-4.34 2.707-6.79 2.707v2Zm8.21-3.293 12-12-1.42-1.414-12 12 1.42 1.414Zm12-12c2-2 3.29-5.26 3.29-8.207h-2c0 2.453-1.11 5.193-2.71 6.793l1.42 1.414Zm3.29-8.207v-180h-2v180h2Zm0-180c0-2.947-1.29-6.207-3.29-8.207l-1.42 1.414c1.6 1.6 2.71 4.34 2.71 6.793h2Zm-38 15.9v148.2h2V38.4h-2Zm0 148.2c0 .275-.15.633-.46.943-.31.31-.67.457-.94.457v2c.92 0 1.77-.453 2.36-1.043.59-.59 1.04-1.432 1.04-2.357h-2Zm-1.4 1.4h-17.1v2h17.1v-2Zm-16.1 1V36h-2v153h2Zm-1-152h17.1v-2h-17.1v2Zm17.1 0c.27 0 .63.147.94.457.31.31.46.668.46.943h2c0-.925-.45-1.767-1.04-2.357-.59-.59-1.44-1.043-2.36-1.043v2Zm150.17-22 .71-.707-.71.707Zm-12-12-.7.707.7-.707Zm-61.5 0 .71.707-.71-.707Zm-12 12-.7-.707.7.707Zm-.9 71.7.79-.616-.01-.012-.01-.012-.77.64Zm52.8 67.5.9-.447-.05-.09-.06-.079-.79.616Zm-51.9 55.8.71-.707-.71.707Zm12 12-.7.707.7-.707Zm61.5 0 .71.707-.71-.707Zm12-12-.7-.707.7.707Zm.9-71.4-.79.616.01.012.01.012.77-.64Zm-52.8-67.5-.89.447.04.09.06.08.79-.617Zm21.3 4.9h31.2v-2h-31.2v2Zm31.2 0c.93 0 1.77-.453 2.36-1.043.59-.59 1.04-1.432 1.04-2.357h-2c0 .275-.15.633-.45.943-.31.31-.67.457-.95.457v2Zm3.4-3.4V22.5h-2v50.1h2Zm0-50.1c0-2.947-1.29-6.207-3.29-8.207l-1.41 1.414c1.6 1.6 2.7 4.34 2.7 6.793h2Zm-3.29-8.207-12-12-1.41 1.414 12 12 1.41-1.414Zm-12-12c-2-2-5.26-3.293-8.21-3.293v2c2.45 0 5.2 1.107 6.8 2.707l1.41-1.414ZM4375.74-1h-46.5v2h46.5v-2Zm-46.5 0c-2.95 0-6.21 1.293-8.2 3.293l1.41 1.414c1.6-1.6 4.34-2.707 6.79-2.707v-2Zm-8.2 3.293-12 12 1.41 1.414 12-12-1.41-1.414Zm-12 12c-2 2-3.3 5.26-3.3 8.207h2c0-2.453 1.11-5.193 2.71-6.793l-1.41-1.414Zm-3.3 8.207v58.2h2V22.5h-2Zm0 58.2c0 2.296.66 4.633 2.33 6.64l1.54-1.28c-1.33-1.594-1.87-3.456-1.87-5.36h-2Zm2.31 6.616 52.8 67.5 1.58-1.232-52.8-67.5-1.58 1.232Zm52.7 67.331c.33.658.49 1.035.49 1.353h2c0-.882-.43-1.705-.7-2.247l-1.79.894Zm.49 1.353v30.6h2V156h-2Zm0 30.6c0 .275-.15.633-.45.943-.31.31-.67.457-.95.457v2c.93 0 1.77-.453 2.36-1.043.59-.59 1.04-1.432 1.04-2.357h-2Zm-1.4 1.4h-14.7v2h14.7v-2Zm-14.7 0c-.27 0-.63-.147-.94-.457-.31-.31-.46-.668-.46-.943h-2c0 .925.45 1.767 1.05 2.357.59.59 1.43 1.043 2.35 1.043v-2Zm-1.4-1.4v-34.2h-2v34.2h2Zm0-34.2c0-.925-.45-1.767-1.04-2.357-.59-.59-1.43-1.043-2.36-1.043v2c.28 0 .64.147.95.457.3.31.45.668.45.943h2Zm-3.4-3.4h-31.2v2h31.2v-2Zm-31.2 0c-.92 0-1.76.453-2.35 1.043-.6.59-1.05 1.432-1.05 2.357h2c0-.275.15-.633.46-.943.31-.31.67-.457.94-.457v-2Zm-3.4 3.4v50.1h2v-50.1h-2Zm0 50.1c0 2.947 1.3 6.207 3.3 8.207l1.41-1.414c-1.6-1.6-2.71-4.34-2.71-6.793h-2Zm3.3 8.207 12 12 1.41-1.414-12-12-1.41 1.414Zm12 12c1.99 2 5.25 3.293 8.2 3.293v-2c-2.45 0-5.19-1.107-6.79-2.707l-1.41 1.414Zm8.2 3.293h46.5v-2h-46.5v2Zm46.5 0c2.95 0 6.21-1.293 8.21-3.293l-1.41-1.414c-1.6 1.6-4.35 2.707-6.8 2.707v2Zm8.21-3.293 12-12-1.41-1.414-12 12 1.41 1.414Zm12-12c2-2 3.29-5.26 3.29-8.207h-2c0 2.453-1.1 5.193-2.7 6.793l1.41 1.414Zm3.29-8.207v-57.9h-2v57.9h2Zm0-57.9c0-2.296-.66-4.634-2.33-6.64l-1.54 1.28c1.33 1.594 1.87 3.456 1.87 5.36h2Zm-2.31-6.616-52.8-67.5-1.58 1.232 52.8 67.5 1.58-1.232Zm-52.69-67.331c-.09-.179-.18-.332-.25-.456a4.348 4.348 0 0 1-.17-.294.63.63 0 0 1-.08-.303h-2c0 .495.13.874.3 1.197.07.145.15.288.22.4.07.12.13.229.19.35l1.79-.894Zm-.5-1.053V38.4h-2v31.2h2Zm0-31.2c0-.275.15-.633.46-.943.31-.31.67-.457.94-.457v-2c-.92 0-1.76.453-2.35 1.043-.6.59-1.05 1.432-1.05 2.357h2Zm1.4-1.4h14.7v-2h-14.7v2Zm14.7 0c.28 0 .64.147.95.457.3.31.45.668.45.943h2c0-.925-.45-1.767-1.04-2.357-.59-.59-1.43-1.043-2.36-1.043v2Zm1.4 1.4v34.2h2V38.4h-2Zm0 34.2c0 .925.45 1.767 1.05 2.357.59.59 1.43 1.043 2.35 1.043v-2c-.27 0-.63-.147-.94-.457-.31-.31-.46-.668-.46-.943h-2Z" fill="#444"></path></svg>